<?xml version="1.0" encoding="UTF-8"?>
<svg xmlns="http://www.w3.org/2000/svg" version="1.1" xmlns:xlink="http://www.w3.org/1999/xlink" viewBox="0 0 192 10">
  <defs>
    <style>
      .cls-1 {
        filter: url(#drop-shadow-2);
      }

      .cls-2 {
        fill: #fff;
      }

      .cls-3 {
        fill: none;
      }

      .cls-4 {
        filter: url(#drop-shadow-1);
      }

      .cls-5 {
        display: none;
      }

      .cls-6 {
        fill: #e6e7e8;
      }
    </style>
    <filter id="drop-shadow-1" filterUnits="userSpaceOnUse">
      <feOffset dx="0" dy="-.5"/>
      <feGaussianBlur result="blur" stdDeviation=".5"/>
      <feFlood flood-color="#000" flood-opacity=".35"/>
      <feComposite in2="blur" operator="in"/>
      <feComposite in="SourceGraphic"/>
    </filter>
    <filter id="drop-shadow-2" filterUnits="userSpaceOnUse">
      <feOffset dx="0" dy="-.5"/>
      <feGaussianBlur result="blur-2" stdDeviation=".5"/>
      <feFlood flood-color="#000" flood-opacity=".35"/>
      <feComposite in2="blur-2" operator="in"/>
      <feComposite in="SourceGraphic"/>
    </filter>
  </defs>
  <!-- Generator: Adobe Illustrator 28.6.0, SVG Export Plug-In . SVG Version: 1.2.0 Build 709)  -->
  <g>
    <g id="Top_Divider" class="cls-5">
      <g class="cls-4">
        <path class="cls-3" d="M108.25,3.96s0,0,0,0c0,.04,0,.08,0,.12,0-.04.02-.1,0-.12Z"/>
        <path class="cls-3" d="M83.75,4.08s0-.08,0-.12c0,0,0,0,0,0-.02.02,0,.08,0,.12Z"/>
        <g>
          <path class="cls-6" d="M188.5,5.25c.11-.08.23-.17.35-.26.19-.01.36-.02.53.03.09.03.18.04.28.06,0-.02-.01-.04-.02-.06-.12-.31-.42-.21-.65-.27-.19-.06-.15-.29-.25-.44,0-.02-.08-.02-.1,0-.13.21-.15.65-.46.73-.1.01-.2.17-.28.23.2-.01.4-.04.6-.03Z"/>
          <path class="cls-6" d="M.19,5.52c.01.11.03.24.04.37.11.11.21.21.3.3.02.12.04.22.06.32.1.07.21.15.31.22v.56c-.15.14-.29.28-.43.41.03.05.06.09.08.13.22.09.46.07.68.07.07-.04.13-.08.19-.12.09.04.16.08.23.11.18-.12.2-.13.3-.11.21.03.42.07.62.1.01,0,.02-.02.03-.03.22-.25.43-.5.6-.7v-.62c.11-.14.21-.26.3-.38.11-.03.23-.05.33-.08.13.05.26.09.37.13.04-.07.07-.13.11-.19.3-.07.59-.14.91-.21,0,0,.01-.01.02-.02.03-.03.06-.06.1-.09t0,0s.09-.08.14-.12c.14.07.26.13.38.19h0c.25.13.54.24.89.25.06-.05.11-.13.2-.16.37-.12.74-.22,1.12-.32.09-.02.21-.03.29,0,.32.1.57-.03.81-.17.04,0,.08.01.12.02.02-.02.05-.04.07-.06.08.04.16.08.23.11.04,0,.08.02.13.02.01.02.02.04.03.05.1.05.2.1.28.14.23-.02.43-.07.62-.04.08.01.15.02.23.04.04-.07.07-.13.11-.2.09-.04.18-.08.24-.11.18.02.31.1.48.06.07-.02.15-.02.23,0,.22-.33.53-.55.9-.69.14-.05.24-.13.35-.23.07-.07.16-.12.22-.17q.45.21.68.2c.21.15.44.28.58.52.26.04.4.27.58.43.15-.14.15-.32.21-.48.11.01.21.02.33.03.01-.02.03-.03.04-.04.01,0,.02,0,.04,0,.15-.13.36-.17.57-.19,0-.11-.08-.19.07-.27.08.02.18.05.27.08,0,.09.01.15.02.22h.55s.02,0,.03,0c.16-.13.29-.25.43-.36.47-.42,1.02-.5,1.54-.18.21.13.42.28.62.42.1.03.19.06.29.09.1-.06.2-.13.28-.18.4-.04.78.05,1.08-.12.23.04.42.12.58.08.46-.13.88-.06,1.25.22.17-.1.33-.19.48-.28.02.01.03.03.05.04.07-.04.15-.07.24-.09.1.02.21.06.32.07.11.02.23.02.3.02.13.06.22.14.29.22.09-.01.19,0,.29.03.13.14.23.31.3.49.14-.02.24-.03.3-.04.23.1.31.26.42.4.02.02.03.04.06.05.03,0,.06-.02.09-.04.02.01.04.02.05.03.01-.06.02-.11.04-.18.14-.06.28-.12.42-.18.15-.07.26-.19.43-.17.05-.09.03-.2.17-.2.06.04.11.08.16.12.06-.05.12-.09.19-.16.14.14.26.26.38.38.1-.05.19-.09.28-.14.18.2.46.17.7.22.17-.02.29-.18.47-.12.07.12-.1.22.07.31.08,0,.17,0,.27-.02.01.02.03.05.04.07.07,0,.14.01.21.02.08-.07.15-.14.23-.21.07.01.13.02.2.04.08-.04.15-.09.22-.13.01,0,.03.02.04.03.03-.01.05-.03.08-.04.26.1.5.2.74.3.13-.03.24-.06.37-.09.13.07.26.13.39.2.04.13.07.24.1.34-.07.07-.13.13-.2.2.08.11.16.2.23.3.01,0,.02.01.04.02.12-.03.21-.06.29-.08.13.11.25.21.37.3.1.02.2.03.29.05.03,0,.05.02.08.03.05,0,.09-.01.14-.02.06.06.12.11.17.17.39.24.6.59.83.91.07-.03.15-.05.24-.06.25.15.51.15.77.09.02-.02.03-.03.05-.05-.04-.12-.08-.22-.11-.32.08-.11.16-.22.26-.36.14,0,.27.01.41.03.1.01.19.05.28.06.05,0,.11-.02.18-.03.05-.09.11-.17.16-.26-.04-.06-.07-.1-.11-.16-.09.01-.18.02-.28.03-.08-.06-.24-.03-.26-.18.09-.06.2-.1.27-.18.09-.1.2-.16.36-.19.14.07.29.14.44.22.11-.03.22-.06.34-.09v-.22c.21-.12.39.12.58,0,.17.05.33.1.5.15.1-.04.19-.11.27-.18.08.03.16.06.24.09.17-.02.27.04.36.2.02.04.03.1.05.14.2.02.39.03.53.14.06.14,0,.28.02.38.05-.01.09-.02.13-.03.27.04.48.19.67.35.07-.02.14-.03.22-.05.02.06.04.11.05.16h.43c.1-.14.19-.28.32-.45.54-.18,1.06-.57,1.66-.57.17-.14.31-.25.41-.33.33-.09.6.03.85.1.03-.02.07-.03.1-.05,0-.03.02-.06.03-.09.03,0,.06.02.09.03.26-.14.51-.27.78-.4h.8c.14-.09.26-.17.38-.25.25,0,.51.01.77,0,.25-.02.51-.06.84-.1.22.07.46.11.71.14.07-.01.14,0,.21.03.1.01.2.02.3.03.11-.02.21-.05.31-.01.02-.01.05-.02.07-.03.07-.07.12-.13.16-.17.25-.09.45-.16.65-.24h.5c.36.16.41.57.82.68.09-.04.18-.09.28-.14.1.09.19.17.28.25-.09.09-.15.17-.24.26.03.04.06.09.09.13.06,0,.13.02.19.05.11-.12.2-.23.29-.34.17.09.33.17.45.24.24-.05.27-.21.32-.38.03-.09.11-.16.16-.24.14.04.25.07.35.1.03,0,.05-.02.08-.02,0-.03,0-.07-.01-.1.11-.08.22-.16.3-.22-.02-.08-.04-.12-.05-.19.29-.14.22-.48.52-.66.12-.02.27-.05.43-.08.06.13.12.23.18.35.12-.02.23-.03.37-.05.26.07.46.2.45.5,0,.08.08.16.13.23.03,0,.05,0,.07,0,.04,0,.06,0,.08-.01.19-.05.27.19.46.11.01.04.02.08.03.12.15.06.29.12.43.17.2-.1.36-.17.53-.25h.58c.11.07.22.13.3.19.11-.03.21-.05.22-.05.07.03.13.06.19.09,0-.12-.08-.25-.08-.38.26-.12.45,0,.64.1.03.07.06.13.09.19.09.04.18.07.28.11.02.15.08.26.18.33.09-.03.18-.05.27-.07.11.03.22.06.32.09.1-.07.19-.12.28-.18.32.33.69.2,1.05.1.36.24.8.26,1.13.54.31.26.69.41,1.04.51.21.21.4.4.57.57.21.01.39.02.54.03.22.13.42.28.59.44.12.08.23.16.35.23.02.02.07,0,.11,0,.04-.04.09-.08.13-.12,0,0,.01-.02.01-.03,0,0,0,0,.01,0,.02-.02.04-.04.06-.06.17.07.31.12.45.18,0,0,.01,0,.02,0,.03,0,.05-.01.08-.02.05.04.11.08.16.11.36.13.53.08.94-.15.07-.06.14-.13.2-.2,0,0,.02,0,.03,0,0,0,.01-.02.02-.03.08-.14.22-.19.37-.24.11-.04.23-.04.32-.05.11-.15.23-.28.38-.38.08-.13.19-.23.32-.31,0-.04-.02-.08-.03-.12.07-.11.16-.22.25-.35.32-.02.63-.02.97,0,.23.21.55.28.9.35-.01.15-.02.28-.04.43.15.06.3.13.45.19.13-.02.24-.11.36-.02,0,.06-.01.12-.02.21.09.04.19.09.29.15.09.05.18.12.27.18-.02.11-.03.21-.05.33.2-.08.37-.14.54-.21.03-.01.06-.04.09-.06.04-.03.08-.07.11-.1.43-.04.51-.05.83-.22.02-.04.05-.09.08-.12.04-.04.09-.08.14-.09,0,0,.02,0,.02,0,0-.19.02-.39.03-.58.18-.2.47-.31.69-.46h0c.13-.24.29-.45.46-.64.14-.05.27-.06.39-.03.19-.09.39-.16.62-.17.13.17.24.32.33.44.04.02.08.02.12.02.02-.01.03-.02.05-.04,0,0,.01.02.02.02.12-.03.23-.1.34,0-.05.07-.09.13-.12.18.19.13.41.24.56.43.14.07.28.13.4.22.17-.09.34-.18.52-.27h.38c.19.08.31.24.53.23.06-.1.12-.2.18-.31.12-.01.24-.02.34-.03.02,0,.04-.02.06-.02.03,0,.05,0,.07.01,0,0,.02,0,.03,0,.12-.07.22-.13.3-.18.02.01.04.02.06.03.02-.01.04-.03.06-.04h.55s.01,0,.02,0c0,0,0,0,.01,0h.26s.05.11.06.17c.03.01.05.03.08.04.17-.12.35-.21.34-.41.08.07.16.13.22.18.19,0,.29-.16.47-.1-.03.09-.06.17-.08.25,0,.01.02.02.03.03.06.02.12.05.18.08.14,0,.27.01.4.06.07.02.15,0,.21,0,.11-.11.2-.19.27-.27.2-.03.38-.05.56-.07.04-.08.11-.16.11-.23,0-.11.22-.11.15-.26-.07-.03-.15-.08-.24-.11-.15-.04-.3-.07-.44-.11-.03-.2-.03-.2,0-.24.09-.1.19-.21.28-.3.12.03.21.05.29.06.24-.1.24-.32.41-.47.08-.03.18-.07.32-.13.14.18.35.21.57.24.03,0,.04.05.07.08-.05.12-.1.24-.15.36-.11,0-.2,0-.28.01-.08.26.07.4.33.53h.44c.19.06.29.2.47.15.02,0,.07.06.12.1-.08.04-.14.08-.18.1.04.16.07.27.1.4-.09.06-.16.11-.25.15-.09.03-.2.03-.21.16.14.14.29.3.43.44.11,0,.21.04.3-.03.02-.11-.11-.22.04-.33.05,0,.1,0,.15.02.08.02.15.04.23-.06-.02-.07-.07-.16-.08-.26-.02-.11,0-.22,0-.31-.09-.06-.16-.12-.23-.17.07-.07.13-.11.17-.16-.05-.27-.36-.17-.55-.28-.04-.09-.1-.19-.13-.31-.03-.11-.03-.23-.07-.34-.03-.1-.08-.2-.13-.31.37-.17.71-.33,1.08-.51.24.11.51,0,.75.01.2.04.27.22.46.25.05-.19,0-.41.31-.45.11-.01.22.05.3.18-.01.11.08.26-.08.39-.1.02-.2.03-.32.05.02.25-.17.42-.29.63-.18.07-.36.13-.57.2.06.05.11.09.15.14.13-.03.24-.06.36-.09.11-.03.22-.05.35-.08-.01-.1-.03-.18-.04-.27.09-.14.17-.28.26-.42.24.07.14.29.36.43.06.02.2.08.31.12.23-.11.41-.2.55-.26.23.04.4.08.6.11.15.1.31.2.48.31.06-.07.12-.14.17-.2.2.07.15.3.36.34.03,0,.05-.01.08-.02,0,0,.02-.02.03-.02.01,0,.03,0,.04,0,.18-.07.35-.18.57-.11.19.19.43.26.73.21.07.06.13.11.22.19.12-.1.22-.18.31-.26.01,0,.02-.02.03-.03v.03c.13.02.25.08.34.16.03.07.05.13.09.21.13.04.28.09.42.14.08-.06.14-.1.19-.15.06-.06.09-.15.26-.16.14.05.32.11.51.18.31-.15.66-.05.98-.11.2-.11.38-.25.62-.28.5.11.99.21,1.51.21.06.06.11.11.15.15.24.04.47.08.7.11.08-.05.16-.09.24-.14.02,0,.04.01.06.02.35.18.51.18.8-.02.21-.15.41-.3.57-.42.36-.04.65-.06.97-.09.11.04.26.1.4.16h.57c.2-.14.39-.26.55-.37.22-.04.41-.07.58-.11.21.06.4.11.58.16.12-.06.23-.13.36-.2.09.03.18.07.28.08.09.01.18,0,.27,0,.03.07.06.13.09.2.47-.08.92.05,1.37.03.13.07.24.13.34.19.14,0,.26.02.38.03.07.06.15.12.24.19.26-.07.41.14.58.19.41.03.77-.04,1.1.1.1-.06.2-.12.3-.17.11.03.23.07.34.08.13,0,.27-.02.4-.04.07.07.13.13.19.2.02-.03.04-.06.05-.09.02-.04.05-.07.07-.12.1.05.18.1.3.16.35-.03.7-.11.96-.37.09.06.17.11.23.15h.36c.08-.07.15-.12.22-.17.13.03.24.06.34.08.13-.06.25-.11.37-.17.08.11.14.19.2.27.06.09.23.13.21.27-.09.03-.16.05-.24.07.18.25.34.5.52.76.02.11.04.24.06.38.09,0,.16,0,.25.01,0-.09-.01-.15-.02-.2.1-.2.37-.08.52-.2.03-.11.05-.23.08-.36.06.04.1.06.14.08-.04.19-.07.37-.1.51-.1.1-.28.05-.29.22h.78c.07-.04.15-.09.23-.14h.4c.1.05.18.1.26.14.06-.04.12-.09.2-.15.12.09.27.07.42.06.01,0,.02.03.04.04,0,.15.02.3.03.44.13.15.27.24.49.29.21.05.41.12.65.02-.09-.19-.18-.37-.26-.56-.03-.07-.03-.15-.04-.22.22-.1.41-.18.61-.27.14.09.29.17.45.27-.03.13-.06.25-.1.38.11.09.2.18.3.26.04.03.1.05.13.07.37-.04.71-.08,1.06-.13.08-.06.15-.11.1-.24-.08-.06-.18-.13-.28-.2.05-.19.1-.36.17-.61,0-.08.28.15.24-.06-.1-.04-.2-.09-.3-.13.07-.15.06-.31.21-.42.19.13.38.25.55.36.3-.02.58-.04.86-.05.02-.12.03-.23.06-.35,0-.02.06-.03.1-.06.1.09.21.18.3.26h.35c.32-.25.65-.51.99-.78.14-.01.29-.03.42-.05.08-.13.13-.23.17-.3.36.01.68.02.97.03.13-.09.29-.14.46-.15,0,0,0,0,0,0,.11-.04.21-.08.32-.13.1.09.18.18.27.27h.83c.1-.07.19-.13.27-.19h.92c.12.05.25.1.37.14.13,0,.27.01.4,0,.17-.01.34-.05.51-.08.05.05.1.09.15.13h.02c.19.09.39.19.62.3.13-.01.28-.03.34-.04.21.06.34.13.47.13.38-.01.74.06,1.1.14.09.09.18.17.24.23.34.09.38-.16.58-.28.25.01.52.03.75.04.16-.05.29-.1.41-.13.13-.04.26-.07.4-.09.15-.03.28.11.46.05.11-.04.26.02.37.03.19-.27.47-.38.76-.51.2.09.39.18.54.25.18,0,.34-.04.49,0,.15.04.3.09.46.06.33-.2.69-.29,1.09-.22.21-.22.41-.45.59-.64.6-.12,1.14.05,1.68.1.18.02.35.13.54.2.3-.12.61.19.95.06.11-.06.23-.13.35-.2.12.02.24.06.34.04.14-.03.26-.04.4.01.1.04.23.05.35.04.21,0,.39.05.56.18.06.12.13.26.2.4.14.03.27.05.4.08.17.25.33.49.47.69.21.02.38.03.59.04.08-.06.18-.13.28-.21.04-.03.1-.05.17-.08.13.06.26.13.27.13.23.24-.09.24-.04.4.4.15.83.22,1.28.15.17-.04.14-.26.33-.25.14.03.2.19.37.14.05-.08.11-.17.18-.28.16.11.3.2.44.29.38.06.63.16,1.27.52.05-.06.1-.13.17-.19.1-.1.23-.12.41-.04.09.13.21.28.31.42q.26.03.46.14v.17c.17.18.37.27.59.31.33-.07.62-.17.83-.39.13.03.24.05.36.07.19-.1.37-.19.57-.29.09.02.19.04.29.06.08-.04.16-.09.26-.15.18.03.4.2.55-.03.04-.08-.11-.16.03-.24.17.08.33.08.48-.1.02-.09.04-.2.07-.31.16-.16.32-.29.6-.29.09,0,.18-.1.25-.14.04-.15-.16-.29.08-.4.13.05.27.09.42.15.16-.11.31-.21.47-.32-.05-.08-.11-.17-.18-.27.13-.06.24-.12.33-.17.13.03.22.06.33.09.16-.05.32-.1.46-.14.09-.1.16-.17.24-.26h1.02c.16-.08.31-.17.46-.24.08-.04.18-.05.25-.07.3.13.44.37.61.57.34-.23.74-.23,1.08-.29.11-.1.2-.19.29-.26h.3c.13.07.25.13.34.19.34,0,.66.04.94-.08.23.06.43.12.55.15.24-.03.39-.05.53-.08.15.11.29.2.42.3.11-.03.2-.05.29-.07.37.1.61.32.81.57.08.1.15.19.27.26.02,0,.05.01.08.02,0,0,0,.01,0,.02.01,0,.03.01.04.02.1-.01.22-.05.33-.04.43.05.84.15,1.28.16.23,0,.45.1.69.15v.32c.27.01.52.05.77-.03.09-.03.2-.06.28-.03.19.06.34-.03.5-.07.04-.08.08-.15.13-.24.16-.06.32-.12.46-.17.15-.15-.02-.3.01-.46.07-.06.16-.12.23-.17.36-.07.69.09.99-.03l.41.21c.16-.04.29-.07.4-.1.12.03.22.06.22.06.26-.03.44-.08.61-.06.42.07.86.08,1.25.31h.85c.34.2.5.51.82.65h.33c.14-.11.28-.22.41-.32.14-.02.26-.04.32-.05.41-.35.78-.67,1.11-.95.23-.05.4-.08.6-.12.17.09.35.18.54.27.13,0,.27-.02.4-.02.16,0,.31.02.47.03.14,0,.28,0,.42,0,.16-.06.32-.12.5-.19.48.21.91.02,1.38-.12.04.02.08.04.13.05.02,0,.04,0,.05-.01-.04-.01-.08-.06-.08-.09-.02-.25.04-.5-.36-.46-.38.02-.77.04-1.15-.02-.12-.02-.12-.15-.13-.21-.08-.15-.31-.35-.4-.21-.12.21.04.69-.36.52-.06-.04.02-.29-.04-.4-.02-.04-.15-.04-.19,0-.23.21-.4.06-.6.1v-.12c-.21.08-.25.15-.25.23s-.12.17-.21.21c-.13.08-.19-.02-.21-.1-.04-.12,0-.23-.04-.35-.04-.12-.13-.15-.21-.12-.29.17-.36.75-.54.63-.23-.13-.33-.54-.27-.86-.1.12-.23.15-.35.23-.02.02.02.1,0,.12s-.08,0-.12,0c.02-.13-.04-.19-.12-.23-.04-.02-.08,0-.12,0,.04.23-.17.27-.27.44-.1.21-.35.13-.54.13.02-.23-.13-.4-.25-.56-.08-.1-.15.06-.21.08-.19.06-.42-.04-.56.06-.12.1-.15.33-.13.54-.04,0-.08.02-.12,0-.13-.13-.33-.23-.23-.46-.17-.06-.46-.23-.58,0,0-.04.02-.08,0-.12-.15-.21-.5-.36-.69-.12-.02.02-.1.02-.12,0-.33-.42-.63-.1-.9-.27-.35-.21-.56-.04-.83-.06-.13,0-.27.08-.35.21-.02.08.02.17-.02.21-.04.04-.13,0-.21.04-.02,0,0,.06,0,.1-.08-.15-.13-.38-.25-.42-.31-.12-.67.02-1.02-.06-.02-.02.02-.17-.02-.19-.08-.06-.21-.02-.33-.02.08.27-.23.33-.46.35,0-.08.02-.15-.02-.23,0-.02-.08-.02-.1,0s.02.1,0,.1c-.08.04-.17.04-.21,0-.1-.06-.12-.21-.15-.31-.1-.17-.17-.31-.21-.48,0,.04.02.1,0,.12-.36.38-.67.73-.86,1.25-.1.25-.38.15-.52.02-.06-.06-.06-.17-.12-.23-.15-.15-.25-.33-.36-.44-.12-.1-.29-.02-.33.1-.23-.27-.48.08-.67-.04-.17-.08-.25-.06-.36-.08.02.31-.25.21-.35.35-.1-.12-.23-.15-.35-.23-.02-.02,0-.1,0-.1-.25-.06-.6-.25-.83-.04-.08.06-.27-.04-.33.13-.06.25-.23.75-.42.54-.1-.12-.19-.23-.29-.27-.31-.13-.29.27-.44.42-.15.13-.31.12-.46.12.02-.21-.12-.27-.23-.33-.06-.04-.15,0-.23-.04-.02,0,0-.08,0-.08-.15-.04-.31-.04-.46,0v.08c-.38.04-.77-.04-1.15.04-.02,0,.02.15-.02.19-.04.04-.13,0-.21.04-.02,0,0,.06,0,.1-.12-.08-.15-.15-.12-.23h-.1c-.08-.19-.13-.58-.36-.58.04.36-.12.29-.23.35-.02.02.02.1,0,.12-.02.02-.1.02-.12,0-.02-.02.02-.08,0-.12-.08-.1-.13-.17-.23-.21-.13-.08-.19.02-.23.1-.02.04.02.1,0,.12-.35.23-.56.6-.84.75-.4.21-.65-.6-1-.84-.23-.17-.46-.17-.69-.12,0,0,.02.08,0,.1s-.1,0-.1,0c-.23.58-.46.6-.56.44-.1-.17.02-.48-.27-.54-.04-.02-.1.06-.1.1-.02.56-.23.27-.36.35v-.1c-.19-.04-.42.04-.56-.06-.12-.1-.21-.54-.33-.38-.31.35-.61.84-1.06.61-.04-.02-.06-.17-.13-.17-.35-.04-.69.02-1.04-.04-.12-.02-.12-.15-.13-.19-.08-.17-.31-.38-.38-.23-.13.27.04.67-.29.9-.04.02-.08,0-.12,0,.08-.38-.21-.46-.36-.52-.27-.12-.6-.08-.9-.17.02.13-.04.25-.12.35-.02.02-.08,0-.12,0,.02.13-.04.19-.12.23-.04.02-.1-.02-.12,0-.1.1-.17.17-.23.12-.23-.29-.58-.35-.92-.36-.08,0-.17-.04-.23-.1-.02-.02.02-.08,0-.12-.02-.04-.1-.08-.1-.12,0-.19-.04-.35-.13-.46-.02-.02-.1-.02-.1,0-.04.08,0,.19-.04.21-.15.1-.29.02-.33-.1,0,.04.02.1,0,.12-.31.31-.13.73-.27,1.02-.04.08-.17-.04-.17-.1.04-.35-.17-.6-.48-.69.02.21-.12.29-.23.33-.21.06-.46.04-.69,0v-.08c-.23-.04-.46,0-.69-.04v-.1c-.31.02-.61-.02-.92.1-.13.06-.31.04-.46,0,0,0,.02-.08,0-.1-.02-.02-.1.02-.12,0-.02-.02,0-.08,0-.12-.06.46-.48.33-.73.54-.13.12-.46.12-.63,0-.27-.17-.15-.5-.13-.77-.21.15-.29.63-.56.42-.04-.04-.06-.15-.13-.17-.31-.08-.35.19-.38.44-.02.1-.19.15-.31.23,0-.23.08-.54-.04-.65-.23-.19-.52.23-.79.4-.08.06-.21,0-.33.02-.04.02-.08.1-.12.12-.12.02-.23,0-.35,0,0-.35-.29-.46-.46-.69-.08-.12-.13-.21-.12-.35-.04,0-.1.02-.12,0-.1-.1-.21-.15-.21-.12,0,.63-.27.48-.48.58,0-.31.06-.61-.02-.92-.02-.02-.15-.02-.21.02-.29.21-.36.6-.69.79,0-.04.02-.1,0-.1-.08-.04-.17-.04-.23,0-.15.1-.23.25-.25.44,0,.04-.06.08-.1.12.02-.21-.12-.27-.23-.33-.12-.08-.25.02-.35.1-.02.02.02.1,0,.12-.02.02-.08,0-.12,0,.04-.19,0-.29-.12-.35-.02-.02,0-.1,0-.1-.42-.15-.36.42-.46.67,0-.19.04-.4-.02-.58-.02-.02-.17-.02-.19.02-.1.19.1.5-.25.58v.1c-.15-.19-.29-.38-.23-.58h-.1c-.04-.12-.02-.23-.02-.35-.13.02-.17-.06-.23-.12-.12.15-.12.31-.13.46-.02.12-.15.17-.21.12-.02-.02,0-.1,0-.1-.12-.04-.23-.04-.35,0,0,0,.02.08,0,.1-.31.23-.29.04-.35.02-.38-.13-.83.1-1.19-.21-.23-.17-.69.1-.88-.27-.5,0-1.06.13-1.48-.06-.31-.15-.6-.35-.94-.29.02-.31-.21-.25-.36-.33-.08-.06-.29-.08-.29.1,0,.44-.17.84-.48,1.15.02-.13-.04-.19-.12-.23-.33-.1-.56-.27-.81-.46-.04-.02-.08,0-.12,0,.02.13-.04.19-.12.23-.21.08-.33-.1-.46-.23-.02-.02-.08-.02-.12,0-.15.13-.25.33-.46.33-.04,0-.08-.08-.12-.1-.12-.02-.23.02-.35-.02-.13-.04-.15-.25-.25-.29-.19-.1-.5-.12-.63,0-.21.15-.29.48-.27.77-.15-.21-.31-.15-.46-.1-.12.04-.15.13-.12.21-.04,0-.1.02-.12,0-.1-.1-.17-.12-.21-.13-.25-.17-.27-.4-.6-.44-.17-.02-.31.04-.46.1-.31.08-.61.06-.92,0-.06-.02-.06-.17-.12-.19-.38-.06-.77,0-1.15-.04-.04,0-.08-.06-.12-.1v.12c-.13-.02-.17.08-.23.1-.12.04-.25.06-.33,0-.23-.17-.46-.21-.71-.23-.04,0-.08-.08-.12-.08-.19-.02-.5-.13-.56.1-.04.17-.02.33-.13.33-.04,0-.08-.08-.12-.08-.17-.04-.38-.06-.44.1-.08.21.06.52-.06.65-.1.12-.36.04-.54-.1-.21-.15-.35-.46-.6-.52-.36-.1-.73-.12-1.04-.35-.25-.17-.58-.19-.9-.13-.04,0-.08.08-.12.08-.15.04-.33-.04-.44.04-.13.1-.17.29-.25.44-.08-.04-.15-.1-.23-.1-.04,0-.08.08-.12.1s-.1.02-.1,0c-.15-.33-.25-.23-.36-.25s-.15-.13-.12-.21c-.19-.08-.44-.21-.54-.1-.12.13.02.46-.17.52-.35.1-.31-.42-.56-.52-.06-.02-.19.04-.21.1-.04.27-.19.23-.23.21-.36-.21-.73-.25-1.06-.12-.02.02-.08-.06-.12-.1-.12.17-.25.17-.33.1-.31-.25-.67-.63-1.06-.33-.06-.13-.1-.27-.23-.35-.08-.02-.17-.02-.21.02-.15.13-.19.36-.25.56,0-.04.02-.1,0-.12s-.1.02-.12,0c-.13-.15-.23-.15-.35-.12-.04.02-.1.08-.12.12-.02.08,0,.15,0,.23-.1-.12-.21-.19-.35-.23-.12-.02-.25-.04-.33.02-.04.02-.02.13-.02.21-.13-.02-.19.04-.23.12,0,.04,0,.07,0,.11,0,0,0,0,0,0,.02.02,0,.08,0,.12,0-.04,0-.08,0-.12-.02-.01-.07-.01-.11,0-.12.08-.15.15-.12.23-.08,0-.17.02-.21-.02-.27-.21-.63-.38-.96-.29-.13.06-.36-.04-.56-.04,0,.08.02.19-.02.21-.19.1-.38,0-.56-.08-.13-.06-.33-.08-.44,0-.31.21-.5.02-.71,0-.54-.06-1.08.02-1.61-.04-.27-.02-.36-.29-.58-.42-.06-.04-.19-.04-.21,0-.12.17-.27.29-.35.44-.08.17,0,.54-.21.4-.17-.08-.1-.44-.19-.61-.13-.21-.46-.44-.77-.35,0,0,.02.08,0,.1-.31.23-.29.04-.35.02-.15-.04-.35.02-.48.04-.4.08-.83-.15-1.25-.04-.1.04-.15.13-.23.1.02.13-.04.21-.12.21-.15.04-.31-.02-.46.04-.19.06-.08.21-.13.33,0,.02-.08.02-.08,0-.04-.08-.02-.15-.02-.23-.19.04-.29,0-.35-.12-.02-.02-.1-.02-.12,0-.29.27-.36.69-.81.79-.09.02-.18.04-.27.04-.09,0-.18-.02-.27-.04-.44-.1-.52-.52-.81-.79-.02-.02-.1-.02-.12,0-.06.12-.15.15-.35.12,0,.08.02.15-.02.23,0,.02-.08.02-.08,0-.06-.12.06-.27-.13-.33-.15-.06-.31,0-.46-.04-.08,0-.13-.08-.12-.21-.08.04-.13-.06-.23-.1-.42-.12-.84.12-1.25.04-.13-.02-.33-.08-.48-.04-.06.02-.04.21-.35-.02-.02-.02,0-.1,0-.1-.31-.1-.63.13-.77.35-.1.17-.02.54-.19.61-.21.13-.13-.23-.21-.4-.08-.15-.23-.27-.35-.44-.02-.04-.15-.04-.21,0-.21.13-.31.4-.58.42-.54.06-1.08-.02-1.61.04-.21.02-.4.21-.71,0-.12-.08-.31-.06-.44,0-.17.08-.36.17-.56.08-.04-.02-.02-.13-.02-.21-.19,0-.42.1-.56.04-.33-.1-.69.08-.96.29-.04.04-.13.02-.21.02.04-.08,0-.15-.12-.23-.03-.02-.08-.02-.11,0,0,.04,0,.08,0,.12,0-.04-.02-.1,0-.12,0,0,0,0,0,0,0-.04,0-.07,0-.11-.04-.08-.1-.13-.23-.12,0-.08.02-.19-.02-.21-.08-.06-.21-.04-.33-.02-.13.04-.25.12-.35.23,0-.08.02-.15,0-.23-.02-.04-.08-.1-.12-.12-.12-.04-.21-.04-.35.12-.02.02-.1-.02-.12,0s0,.08,0,.12c-.06-.19-.1-.42-.25-.56-.04-.04-.13-.04-.21-.02-.13.08-.17.21-.23.35-.38-.31-.75.08-1.06.33-.08.08-.21.08-.33-.1-.04.04-.1.12-.12.1-.33-.13-.69-.1-1.06.12-.04.02-.19.06-.23-.21-.02-.06-.15-.12-.21-.1-.25.1-.21.61-.56.52-.19-.06-.06-.38-.17-.52-.1-.12-.35.02-.54.1.04.08,0,.19-.12.21-.12.02-.21-.08-.36.25,0,.02-.06.02-.1,0s-.08-.1-.12-.1c-.08,0-.15.06-.23.1-.08-.15-.12-.35-.25-.44-.12-.08-.29,0-.44-.04-.04,0-.08-.08-.12-.08-.33-.06-.65-.04-.9.13-.31.23-.67.25-1.04.35-.25.06-.38.36-.6.52-.17.13-.44.21-.54.1-.12-.13.02-.44-.06-.65-.06-.15-.27-.13-.44-.1-.04,0-.08.08-.12.08-.12,0-.1-.15-.13-.33-.06-.23-.36-.12-.56-.1-.04,0-.08.08-.12.08-.25.02-.48.06-.71.23-.08.06-.21.04-.33,0-.06-.02-.1-.12-.23-.1v-.12s-.08.1-.12.1c-.38.04-.77-.02-1.15.04-.06.02-.06.17-.12.19-.31.06-.61.08-.92,0-.15-.06-.29-.12-.46-.1-.33.04-.35.27-.6.44-.04.02-.12.04-.21.13-.02.02-.08,0-.12,0,.04-.08,0-.17-.12-.21-.15-.06-.31-.12-.46.1.02-.29-.06-.61-.27-.77-.13-.12-.44-.1-.63,0-.1.04-.12.25-.25.29-.12.04-.23,0-.35.02-.04.02-.08.1-.12.1-.21,0-.31-.19-.46-.33-.04-.02-.1-.02-.12,0-.13.13-.25.31-.46.23-.08-.04-.13-.1-.12-.23-.04,0-.08-.02-.12,0-.25.19-.48.36-.81.46-.08.04-.13.1-.12.23-.31-.31-.48-.71-.48-1.15,0-.17-.21-.15-.29-.1-.15.08-.38.02-.36.33-.35-.06-.63.13-.94.29-.42.19-.98.06-1.48.06-.19.36-.65.1-.88.27-.36.31-.81.08-1.19.21-.06.02-.04.21-.35-.02-.02-.02,0-.1,0-.1-.12-.04-.23-.04-.35,0,0,0,.02.08,0,.1-.06.06-.19,0-.21-.12-.02-.15-.02-.31-.13-.46-.06.06-.1.13-.23.12,0,.12.02.23-.02.35h-.1c.06.19-.08.38-.23.58v-.1c-.35-.08-.15-.38-.25-.58-.02-.04-.17-.04-.19-.02-.06.17-.02.38-.02.58-.1-.25-.04-.83-.46-.67,0,0,.02.08,0,.1-.12.06-.15.15-.12.35-.04,0-.1.02-.12,0-.02-.02.02-.1,0-.12-.1-.08-.23-.17-.35-.1-.12.06-.25.12-.23.33-.04-.04-.1-.08-.1-.12-.02-.19-.1-.35-.25-.44-.06-.04-.15-.04-.23,0-.02,0,0,.06,0,.1-.33-.19-.4-.58-.69-.79-.06-.04-.19-.04-.21-.02-.08.31-.02.61-.02.92-.21-.1-.48.06-.48-.58,0-.04-.12.02-.21.12-.02.02-.08,0-.12,0,.02.13-.04.23-.12.35-.17.23-.46.35-.46.69-.12,0-.23.02-.35,0-.04-.02-.08-.1-.12-.12-.12-.02-.25.04-.33-.02-.27-.17-.56-.6-.79-.4-.12.12-.04.42-.04.65-.12-.08-.29-.13-.31-.23-.04-.25-.08-.52-.38-.44-.08.02-.1.13-.13.17-.27.21-.35-.27-.56-.42.02.27.13.6-.13.77-.17.12-.5.12-.63,0-.25-.21-.67-.08-.73-.54,0,.04.02.1,0,.12-.02.02-.1-.02-.12,0-.02.02,0,.1,0,.1-.15.04-.33.06-.46,0-.31-.12-.61-.08-.92-.1v.1c-.23.04-.46,0-.69.04v.08c-.23.04-.48.06-.69,0-.12-.04-.25-.12-.23-.33-.31.1-.52.35-.48.69,0,.06-.13.17-.17.1-.13-.29.04-.71-.27-1.02-.02-.02,0-.08,0-.12-.04.12-.17.19-.33.1-.04-.02,0-.13-.04-.21,0-.02-.08-.02-.1,0-.1.12-.13.27-.13.46,0,.04-.08.08-.1.12-.02.04.02.1,0,.12-.06.06-.15.1-.23.1-.35.02-.69.08-.92.36-.06.06-.13-.02-.23-.12-.02-.02-.08.02-.12,0-.08-.04-.13-.1-.12-.23-.04,0-.1.02-.12,0-.08-.1-.13-.21-.12-.35-.31.1-.63.06-.9.17-.15.06-.44.13-.36.52-.04,0-.08.02-.12,0-.33-.23-.15-.63-.29-.9-.08-.15-.31.06-.38.23-.02.04-.02.17-.13.19-.35.06-.69,0-1.04.04-.08,0-.1.15-.13.17-.44.23-.75-.27-1.06-.61-.12-.15-.21.29-.33.38-.13.1-.36.02-.56.06v.1c-.13-.08-.35.21-.36-.35,0-.04-.06-.12-.1-.1-.29.06-.17.36-.27.54-.1.15-.33.13-.56-.44,0,0-.08.02-.1,0-.02-.02,0-.1,0-.1-.23-.06-.46-.06-.69.12-.35.25-.6,1.06-1,.84-.29-.15-.5-.52-.84-.75-.02-.02.02-.08,0-.12-.04-.08-.1-.17-.23-.1-.1.04-.15.12-.23.21-.02.04.02.1,0,.12-.02.02-.1.02-.12,0-.02-.02.02-.1,0-.12-.12-.06-.27.02-.23-.35-.23,0-.29.38-.36.58h-.1c.04.08,0,.15-.12.23,0-.04.02-.1,0-.1-.08-.04-.17,0-.21-.04-.04-.04,0-.19-.02-.19-.38-.08-.77,0-1.15-.04v-.08c-.15-.04-.31-.04-.46,0,0,0,.02.08,0,.08-.08.04-.17,0-.23.04-.12.06-.25.12-.23.33-.15,0-.31.02-.46-.12-.15-.15-.13-.56-.44-.42-.1.04-.19.15-.29.27-.19.21-.36-.29-.42-.54-.06-.17-.25-.08-.33-.13-.23-.21-.58-.02-.83.04,0,0,.02.08,0,.1-.12.08-.25.12-.35.23-.1-.13-.36-.04-.35-.35-.12.02-.19,0-.36.08-.19.12-.44-.23-.67.04-.04-.12-.21-.19-.33-.1-.12.12-.21.29-.36.44-.06.06-.06.17-.12.23-.13.13-.42.23-.52-.02-.19-.52-.5-.86-.86-1.25-.02-.02,0-.08,0-.12-.04.17-.12.31-.21.48-.04.1-.06.25-.15.31-.04.04-.13.04-.21,0-.02,0,.02-.08,0-.1s-.1-.02-.1,0c-.04.08-.02.15-.02.23-.23-.02-.54-.08-.46-.35-.12,0-.25-.04-.33.02-.04.02,0,.17-.02.19-.35.08-.71-.06-1.02.06-.12.04-.17.27-.25.42,0-.04.02-.1,0-.1-.08-.04-.17,0-.21-.04-.04-.04,0-.13-.02-.21-.08-.13-.21-.21-.35-.21-.27.02-.48-.15-.83.06-.27.17-.58-.15-.9.27-.02.02-.1.02-.12,0-.19-.25-.54-.1-.69.12-.02.04,0,.08,0,.12-.12-.23-.4-.06-.58,0,.1.23-.1.33-.23.46-.04.02-.08,0-.12,0,.02-.21-.02-.44-.13-.54-.13-.1-.36,0-.56-.06-.06-.02-.13-.17-.21-.08-.12.15-.27.33-.25.56-.19,0-.44.08-.54-.13-.1-.17-.31-.21-.27-.44-.04,0-.08-.02-.12,0-.08.04-.13.1-.12.23-.04,0-.1.02-.12,0-.02-.02.02-.1,0-.12-.12-.08-.25-.12-.35-.23.06.33-.04.73-.27.86-.17.12-.25-.46-.54-.63-.08-.04-.17,0-.21.12-.04.12,0,.23-.04.35-.02.08-.08.17-.21.1-.1-.04-.21-.13-.21-.21s-.04-.15-.25-.23v.12c-.19-.04-.36.12-.6-.1-.04-.04-.17-.04-.19,0-.06.12.02.36-.04.4-.4.17-.25-.31-.36-.52-.1-.13-.33.06-.4.21-.02.06-.02.19-.13.21-.38.06-.77.04-1.15.02-.4-.04-.35.21-.36.46,0,.04-.06.1-.1.1-.19.04-.36.06-.58.1-.1,0-.21-.25-.35-.27-.31-.08-.33-.52-.46-.73-.02-.02-.1-.02-.1,0-.1.15-.06.38-.25.44-.23.06-.54-.04-.65.27-.1.27-.19.54-.5.79-.02.02.02.1,0,.12-.02.02-.08.02-.12,0-.17-.15-.29-.38-.46-.42-.27-.04-.4-.21-.58-.38-.02-.02,0-.08,0-.12-.08.04-.21-.02-.21-.12.03-.47-.18-.85-.5-1.17v1.66c.08.06.16.13.19.15Z"/>
          <path class="cls-6" d="M191.58,5.43c.07-.01.14-.05.19-.03.05.01.15.03.24.04v-1.74c-.31.32-.53.7-.5,1.17,0,.1-.13.15-.21.12,0,.04.02.1,0,.12-.08.08-.15.16-.24.23.06-.03.11-.05.17-.08.13.06.25.12.35.17Z"/>
        </g>
        <path class="cls-2" d="M192,10v-4.55c-.09-.02-.19-.03-.24-.04-.05-.01-.11.02-.19.03-.1-.05-.22-.11-.35-.17-.06.03-.11.05-.17.08-.06.03-.13.06-.19.09-.05-.05-.1-.11-.15-.16-.2.04-.36.08-.54.11-.1-.09-.19-.18-.29-.27-.07-.01-.15-.02-.22-.03-.09-.01-.19-.03-.28-.06-.18-.05-.35-.05-.53-.03-.12.09-.24.17-.35.26-.2,0-.4.01-.6.03-.02,0-.04,0-.06,0-.07-.01-.15-.03-.22-.06-.1-.04-.24-.04-.35-.02-.01,0-.02,0-.03,0-.02,0-.03,0-.05.01-.04-.01-.08-.03-.13-.05-.46.13-.9.33-1.38.12-.17.07-.33.13-.5.19-.14,0-.28,0-.42,0-.16,0-.31-.03-.47-.03-.13,0-.27.01-.4.02-.18-.09-.37-.19-.54-.27-.2.04-.37.07-.6.12-.34.29-.71.6-1.11.95-.07.01-.18.03-.32.05-.13.1-.27.22-.41.32h-.33c-.32-.13-.48-.45-.82-.65h-.85c-.39-.23-.83-.24-1.25-.31-.16-.03-.35.03-.61.06,0,0-.1-.03-.22-.06-.1.03-.23.06-.4.1l-.41-.21c-.3.12-.63-.04-.99.03-.07.05-.15.12-.23.17-.04.16.14.31-.01.46-.15.06-.31.12-.46.17-.04.08-.08.16-.13.24-.17.04-.31.13-.5.07-.08-.02-.19,0-.28.03-.25.07-.5.04-.77.03v-.32c-.24-.06-.46-.15-.69-.15-.44-.01-.85-.11-1.28-.16-.11-.01-.23.03-.33.04-.02,0-.03-.01-.04-.02,0,0,0-.01,0-.02-.03,0-.05-.01-.08-.02-.11-.07-.19-.16-.27-.26-.2-.25-.44-.47-.81-.57-.09.02-.18.04-.29.07-.13-.09-.27-.19-.42-.3-.15.02-.3.04-.53.08-.12-.03-.33-.09-.55-.15-.28.13-.6.08-.94.08-.1-.05-.21-.12-.34-.19h-.3c-.08.08-.18.16-.29.26-.35.06-.74.07-1.08.29-.17-.2-.31-.43-.61-.57-.07.02-.17.03-.25.07-.15.07-.3.16-.46.24h-1.02c-.08.08-.15.16-.24.26-.14.04-.31.09-.46.14-.11-.03-.2-.05-.33-.09-.09.05-.21.1-.33.17.07.11.13.19.18.27-.16.11-.31.21-.47.32-.15-.05-.29-.1-.42-.15-.23.11-.03.25-.08.4-.06.04-.16.14-.25.14-.28,0-.43.13-.6.29-.02.11-.05.22-.07.31-.14.18-.31.18-.48.1-.14.07.01.15-.03.24-.16.23-.37.07-.55.03-.1.06-.18.1-.26.15-.1-.02-.19-.04-.29-.06-.19.1-.38.19-.57.29-.11-.02-.23-.04-.36-.07-.2.22-.49.31-.83.39-.22-.04-.42-.13-.59-.31v-.17q-.2-.11-.46-.14c-.1-.14-.22-.29-.31-.42-.18-.08-.3-.06-.41.04-.06.06-.11.13-.17.19-.64-.36-.89-.46-1.27-.52-.14-.09-.27-.18-.44-.29-.07.11-.12.2-.18.28-.17.04-.23-.11-.37-.14-.19,0-.17.21-.33.25-.46.07-.88,0-1.28-.15-.05-.16.27-.16.04-.4-.02,0-.15-.07-.27-.13-.07.03-.13.05-.17.08-.11.07-.21.15-.28.21-.21-.02-.38-.03-.59-.04-.14-.21-.3-.45-.47-.69-.13-.02-.26-.05-.4-.08-.07-.14-.14-.28-.2-.4-.17-.13-.35-.18-.56-.18-.12,0-.24,0-.35-.04-.14-.05-.26-.04-.4-.01-.1.02-.23-.03-.34-.04-.12.07-.23.13-.35.2-.34.13-.65-.18-.95-.06-.19-.07-.36-.18-.54-.2-.54-.05-1.08-.22-1.68-.1-.18.2-.39.42-.59.64-.4-.08-.76.02-1.09.22-.16.03-.31-.02-.46-.06-.14-.03-.3,0-.49,0-.16-.07-.34-.16-.54-.25-.29.13-.57.24-.76.51-.12-.01-.26-.06-.37-.03-.18.06-.3-.08-.46-.05-.13.02-.27.06-.4.09-.13.03-.25.08-.41.13-.23-.01-.5-.03-.75-.04-.19.11-.24.37-.58.28-.06-.06-.15-.15-.24-.23-.36-.08-.72-.16-1.1-.14-.12,0-.25-.07-.47-.13-.06,0-.21.02-.34.04-.23-.11-.43-.21-.62-.3h-.02s-.1-.09-.15-.13c-.16.03-.33.06-.51.08-.13.01-.27,0-.4,0-.12-.05-.25-.1-.37-.14h-.92c-.08.06-.17.12-.27.19h-.83c-.09-.09-.18-.17-.27-.27-.11.04-.21.08-.32.13,0,0,0,0,0,0-.17.01-.33.07-.46.15-.28,0-.61-.02-.97-.03-.04.07-.1.17-.17.3-.13.01-.28.03-.42.05-.34.27-.67.52-.99.78h-.35c-.09-.08-.2-.17-.3-.26-.04.02-.09.04-.1.06-.03.11-.04.23-.06.35-.29.02-.57.04-.86.05-.17-.11-.36-.23-.55-.36-.15.11-.14.27-.21.42.1.05.2.09.3.13.04.21-.24-.02-.24.06-.07.24-.12.42-.17.61.1.07.2.15.28.2.05.13-.02.18-.1.24-.34.04-.69.08-1.06.13-.03-.02-.09-.04-.13-.07-.1-.08-.19-.17-.3-.26.03-.13.06-.26.1-.38-.16-.1-.3-.19-.45-.27-.2.09-.39.17-.61.27.01.07.01.15.04.22.08.19.17.37.26.56-.24.09-.44.02-.65-.02-.21-.04-.35-.14-.49-.29,0-.14-.02-.29-.03-.44-.01-.02-.02-.04-.04-.04-.15,0-.31.03-.42-.06-.08.06-.14.11-.2.15-.08-.05-.16-.09-.26-.14h-.4c-.08.05-.16.1-.23.14h-.78c0-.18.19-.12.29-.22.03-.15.06-.32.1-.51-.04-.02-.08-.05-.14-.08-.03.13-.05.24-.08.36-.15.12-.42,0-.52.2,0,.05,0,.11.02.2-.08,0-.15,0-.25-.01-.02-.14-.04-.27-.06-.38-.18-.26-.35-.5-.52-.76.08-.02.15-.05.24-.07.02-.14-.15-.18-.21-.27-.06-.08-.12-.17-.2-.27-.13.06-.24.11-.37.17-.1-.02-.21-.05-.34-.08-.06.05-.13.1-.22.17h-.36c-.06-.04-.13-.09-.23-.15-.26.26-.61.34-.96.37-.12-.06-.2-.11-.3-.16-.03.04-.05.08-.07.12-.02.03-.03.06-.05.09-.06-.07-.12-.13-.19-.2-.13.01-.27.04-.4.04-.11,0-.23-.05-.34-.08-.1.06-.2.11-.3.17-.34-.14-.7-.07-1.1-.1-.17-.05-.32-.26-.58-.19-.09-.07-.16-.13-.24-.19-.12,0-.23-.02-.38-.03-.1-.05-.21-.12-.34-.19-.45.02-.9-.12-1.37-.03-.03-.07-.06-.13-.09-.2-.09,0-.18.01-.27,0-.09-.01-.18-.05-.28-.08-.13.07-.24.13-.36.2-.19-.05-.38-.1-.58-.16-.17.03-.36.06-.58.11-.16.11-.35.23-.55.37h-.57c-.15-.06-.29-.11-.4-.16-.32.03-.61.06-.97.09-.16.12-.36.27-.57.42-.28.2-.44.2-.8.02-.02,0-.04-.01-.06-.02-.08.04-.16.09-.24.14-.23-.04-.46-.07-.7-.11-.04-.04-.09-.09-.15-.15-.52,0-1.01-.1-1.51-.21-.24.03-.42.16-.62.28-.33.06-.67-.04-.98.11-.19-.07-.37-.13-.51-.18-.17,0-.2.1-.26.16-.05.05-.11.09-.19.15-.15-.05-.29-.09-.42-.14-.03-.08-.06-.14-.09-.21-.1-.08-.21-.14-.34-.16v-.03s-.02.02-.03.03c-.09.08-.19.16-.31.26-.09-.07-.15-.13-.22-.19-.29.06-.53-.02-.73-.21-.23-.07-.4.04-.57.11-.01,0-.03,0-.04,0,0,0-.02.02-.03.02-.03,0-.05.02-.08.02-.21-.04-.16-.26-.36-.34-.05.06-.11.13-.17.2-.16-.11-.33-.21-.48-.31-.19-.04-.36-.07-.6-.11-.14.07-.32.16-.55.26-.1-.04-.24-.09-.31-.12-.22-.14-.12-.36-.36-.43-.09.14-.18.28-.26.42.01.09.02.17.04.27-.13.03-.24.05-.35.08-.11.03-.23.05-.36.09-.05-.04-.09-.09-.15-.14.21-.07.38-.14.57-.2.12-.21.31-.39.29-.63.12-.02.22-.03.32-.05.15-.13.06-.28.08-.39-.08-.14-.19-.19-.3-.18-.3.04-.26.26-.31.45-.19-.03-.27-.21-.46-.25-.24-.02-.51.09-.75-.01-.37.17-.72.33-1.08.51.04.11.1.21.13.31.03.11.03.23.07.34.03.11.09.22.13.31.19.11.49,0,.55.28-.05.04-.1.09-.17.16.07.05.14.1.23.17,0,.09-.01.2,0,.31.01.09.06.19.08.26-.08.1-.15.08-.23.06-.05-.02-.11-.02-.15-.02-.16.11-.02.22-.04.33-.09.07-.19.03-.3.03-.14-.15-.29-.3-.43-.44,0-.13.12-.13.21-.16.09-.03.16-.09.25-.15-.03-.13-.06-.24-.1-.4.03-.02.1-.05.18-.1-.04-.04-.09-.11-.12-.1-.19.05-.28-.09-.47-.15h-.44c-.26-.13-.41-.27-.33-.53.08,0,.17,0,.28-.01.05-.12.1-.24.15-.36-.03-.03-.05-.08-.07-.08-.22-.03-.43-.06-.57-.24-.14.06-.24.1-.32.13-.18.15-.17.37-.41.47-.08-.02-.17-.04-.29-.06-.09.09-.18.2-.28.3-.04.04-.03.04,0,.24.14.03.3.07.44.11.09.03.17.08.24.11.08.15-.14.15-.15.26,0,.08-.07.15-.11.23-.19.02-.36.04-.56.07-.07.07-.16.16-.27.27-.06,0-.15.02-.21,0-.13-.04-.26-.06-.4-.06-.06-.03-.12-.06-.18-.08,0-.01-.02-.02-.03-.03.03-.08.05-.16.08-.25-.18-.06-.29.09-.47.1-.06-.05-.14-.11-.22-.18,0,.2-.16.29-.34.41-.03-.01-.05-.03-.08-.04-.01-.06-.02-.12-.06-.17h-.26s0,0-.01,0c0,0-.01,0-.02,0h-.55s-.04.03-.06.04c-.02,0-.04-.02-.06-.03-.09.05-.18.11-.3.18,0,0-.02,0-.03,0-.02,0-.05,0-.07-.01-.02,0-.04.01-.06.02-.11.01-.22.02-.34.03-.06.11-.12.21-.18.31-.22,0-.34-.15-.53-.23h-.38c-.18.09-.35.18-.52.27-.12-.09-.26-.15-.4-.22-.16-.19-.37-.3-.56-.43.03-.05.07-.11.12-.18-.11-.11-.21-.04-.34,0,0,0-.01-.02-.02-.02-.02.01-.03.03-.05.04-.04,0-.08,0-.12-.02-.09-.12-.2-.27-.33-.44-.23,0-.43.08-.62.17-.12-.03-.25-.03-.39.03-.17.2-.33.41-.46.64h0c-.22.15-.52.25-.69.46-.01.19-.02.39-.03.58,0,0-.02,0-.02,0-.05.02-.1.05-.14.09-.03.04-.06.08-.08.12-.32.17-.4.18-.83.22-.03.03-.07.07-.11.1-.03.02-.06.05-.09.06-.17.07-.34.13-.54.21.02-.12.03-.22.05-.33-.09-.06-.18-.12-.27-.18-.1-.06-.2-.1-.29-.15,0-.08.01-.15.02-.21-.13-.08-.23,0-.36.02-.14-.06-.3-.13-.45-.19.01-.15.02-.28.04-.43-.34-.06-.67-.13-.9-.35-.34-.01-.65-.02-.97,0-.09.13-.17.24-.25.35,0,.04.02.09.03.12-.13.08-.24.19-.32.31-.15.1-.27.23-.38.38-.1.01-.22.02-.32.05-.14.05-.29.1-.37.24,0,0-.01.02-.02.03,0,0-.02,0-.03,0-.07.07-.13.14-.2.2-.41.24-.58.28-.94.15-.05-.03-.1-.07-.16-.11-.03,0-.05.01-.08.02,0,0-.01,0-.02,0-.14-.06-.29-.12-.45-.18-.02.02-.04.04-.06.06,0,0,0,0-.01,0,0,.01-.01.02-.01.03-.04.04-.09.08-.13.12-.04,0-.09,0-.11,0-.11-.08-.23-.16-.35-.23-.18-.17-.37-.31-.59-.44-.15,0-.33-.02-.54-.03-.17-.17-.36-.36-.57-.57-.35-.1-.73-.24-1.04-.51-.34-.28-.77-.3-1.13-.54-.36.1-.73.23-1.05-.1-.09.06-.18.11-.28.18-.1-.03-.21-.06-.32-.09-.09.02-.18.05-.27.07-.09-.07-.16-.17-.18-.33-.1-.04-.19-.08-.28-.11-.03-.06-.05-.12-.09-.19-.19-.11-.38-.23-.64-.1,0,.12.08.25.08.38-.06-.03-.13-.06-.19-.09,0,0-.1.02-.22.05-.09-.05-.19-.12-.3-.19h-.58c-.17.08-.33.16-.53.25-.14-.05-.28-.11-.43-.17,0-.04-.02-.08-.03-.12-.19.08-.27-.16-.46-.11-.02,0-.05,0-.08.01-.02,0-.05,0-.07,0-.05-.07-.13-.15-.13-.23.01-.29-.18-.42-.45-.5-.13.02-.24.03-.37.05-.06-.12-.12-.23-.18-.35-.16.03-.31.06-.43.08-.3.18-.23.52-.52.66.02.07.03.11.05.19-.09.06-.19.14-.3.22,0,.03,0,.06.01.1-.03,0-.05.02-.08.02-.1-.03-.21-.06-.35-.1-.05.07-.14.15-.16.24-.05.17-.09.33-.32.38-.12-.06-.28-.14-.45-.24-.09.11-.18.22-.29.34-.06-.03-.13-.04-.19-.05-.03-.04-.06-.08-.09-.13.08-.09.15-.17.24-.26-.09-.08-.18-.16-.28-.25-.1.05-.2.09-.28.14-.41-.11-.46-.51-.82-.68h-.5c-.2.07-.4.15-.65.24-.03.03-.09.09-.16.17-.02.01-.05.02-.07.03-.1-.04-.21-.01-.31.01-.1,0-.2-.02-.3-.03-.07-.03-.14-.04-.21-.03-.25-.03-.49-.08-.71-.14-.34.04-.59.09-.84.1-.26.02-.51,0-.77,0-.13.08-.24.16-.38.25h-.8c-.26.14-.52.27-.78.4-.03,0-.06-.02-.09-.03-.01.03-.02.06-.03.09-.03.02-.07.03-.1.05-.26-.07-.52-.18-.85-.1-.1.08-.24.2-.41.33-.61,0-1.13.38-1.66.57-.12.18-.22.31-.32.45h-.43c-.02-.05-.03-.1-.05-.16-.08.02-.15.04-.22.05-.19-.15-.4-.31-.67-.35-.04,0-.08.02-.13.03-.02-.1.04-.25-.02-.38-.14-.11-.33-.12-.53-.14-.01-.04-.02-.1-.05-.14-.09-.16-.19-.21-.36-.2-.08-.03-.16-.06-.24-.09-.08.08-.17.14-.27.18-.17-.05-.33-.1-.5-.15-.19.12-.37-.12-.58,0v.22c-.12.03-.23.06-.34.09-.15-.08-.3-.15-.44-.22-.16.03-.27.08-.36.19-.07.08-.18.12-.27.18.01.15.17.12.26.18.09-.01.18-.02.28-.03.04.06.07.1.11.16-.05.08-.11.17-.16.26-.07.01-.13.04-.18.03-.1,0-.19-.04-.28-.06-.13-.02-.27-.02-.41-.03-.1.13-.18.25-.26.36.04.11.07.2.11.32-.01.02-.03.03-.05.05-.26.06-.52.06-.77-.09-.09.01-.17.03-.24.06-.23-.32-.44-.67-.83-.91-.06-.06-.11-.11-.17-.17-.04,0-.09,0-.14.02-.03-.01-.05-.02-.08-.03-.09-.02-.19-.03-.29-.05-.12-.1-.24-.19-.37-.3-.08.02-.17.05-.29.08-.01,0-.02-.01-.04-.02-.07-.09-.15-.19-.23-.3.07-.07.13-.13.2-.2-.03-.1-.06-.22-.1-.34-.13-.07-.26-.13-.39-.2-.13.03-.24.06-.37.09-.24-.1-.49-.2-.74-.3-.03.01-.06.03-.08.04-.01,0-.03-.02-.04-.03-.07.04-.14.08-.22.13-.07-.01-.13-.02-.2-.04-.08.07-.15.14-.23.21-.07,0-.14-.01-.21-.02-.01-.03-.03-.05-.04-.07-.1,0-.19.01-.27.02-.16-.09,0-.19-.07-.31-.17-.06-.3.1-.47.12-.24-.06-.52-.03-.7-.22-.1.05-.18.09-.28.14-.12-.12-.24-.24-.38-.38-.08.06-.13.11-.19.16-.05-.04-.11-.08-.16-.12-.14,0-.12.11-.17.2-.17-.02-.28.1-.43.17-.14.06-.28.12-.42.18-.01.07-.02.12-.04.18-.02-.01-.04-.02-.05-.03-.03.02-.06.03-.09.04-.02-.01-.04-.03-.06-.05-.11-.14-.19-.3-.42-.4-.07,0-.17.02-.3.04-.07-.18-.17-.35-.3-.49-.1-.02-.2-.04-.29-.03-.07-.09-.15-.17-.29-.22-.06,0-.18,0-.3-.02-.12-.02-.23-.05-.32-.07-.1.01-.17.04-.24.09-.02-.01-.03-.03-.05-.04-.15.09-.3.18-.48.28-.37-.28-.79-.35-1.25-.22-.16.04-.34-.04-.58-.08-.29.17-.68.07-1.08.12-.09.06-.18.12-.28.18-.1-.03-.2-.06-.29-.09-.21-.14-.41-.29-.62-.42-.52-.31-1.06-.24-1.54.18-.13.12-.27.23-.43.36,0,0-.02,0-.03,0h-.55c0-.07-.01-.13-.02-.22-.09-.03-.19-.06-.27-.08-.15.08-.08.16-.07.27-.21.02-.42.06-.57.19-.01,0-.02,0-.04,0-.01.01-.03.03-.04.04-.11-.01-.22-.02-.33-.03-.05.16-.05.35-.21.48-.17-.16-.32-.39-.58-.43-.14-.24-.37-.37-.58-.52q-.22,0-.68-.2c-.07.05-.15.1-.22.17-.1.1-.21.18-.35.23-.37.14-.68.35-.9.69-.08,0-.16,0-.23,0-.18.04-.3-.04-.48-.06-.07.03-.15.07-.24.11-.04.07-.07.13-.11.2-.07-.01-.15-.03-.23-.04-.19-.03-.39.03-.62.04-.09-.04-.18-.09-.28-.14-.01-.02-.02-.04-.03-.05-.04,0-.09-.02-.13-.02-.07-.04-.15-.07-.23-.11-.02.02-.05.04-.07.06-.04,0-.08-.01-.12-.02-.24.13-.49.26-.81.17-.09-.03-.2-.02-.29,0-.38.1-.75.2-1.12.32-.08.03-.14.11-.2.16-.35-.01-.64-.12-.89-.24h0c-.12-.07-.24-.13-.38-.2-.05.04-.09.08-.14.12t0,0s-.07.06-.1.09c0,0-.01.01-.02.02-.31.07-.6.14-.91.21-.04.06-.07.13-.11.19-.11-.04-.24-.08-.37-.13-.1.02-.21.05-.33.08-.09.12-.19.24-.3.38v.62c-.17.2-.38.45-.6.7-.01,0-.02.02-.03.03-.19-.03-.4-.08-.62-.1-.11-.01-.13,0-.3.11-.07-.03-.14-.07-.23-.11-.06.04-.12.08-.19.12-.22,0-.46.02-.68-.07-.03-.04-.05-.08-.08-.13.14-.14.28-.27.43-.41v-.56c-.1-.07-.21-.15-.31-.22-.02-.11-.04-.21-.06-.32-.09-.09-.19-.19-.3-.3-.02-.13-.03-.26-.04-.37-.03-.02-.11-.09-.19-.15v4.63h192Z"/>
      </g>
    </g>
    <g id="Layer_2">
      <g class="cls-1">
        <path class="cls-3" d="M83.75,6.04s0,0,0,0c0-.04,0-.08,0-.12,0,.04-.02.1,0,.12Z"/>
        <path class="cls-3" d="M108.25,5.92s0,.08,0,.12c0,0,0,0,0,0,.02-.02,0-.08,0-.12Z"/>
        <g>
          <path class="cls-6" d="M3.5,4.75c-.11.08-.23.17-.35.26-.19.01-.36.02-.53-.03-.09-.03-.18-.04-.28-.06,0,.02.01.04.02.06.12.31.42.21.65.27.19.06.15.29.25.44,0,.02.08.02.1,0,.13-.21.15-.65.46-.73.1-.01.2-.17.28-.23-.2.01-.4.04-.6.03Z"/>
          <path class="cls-6" d="M191.81,4.48c-.01-.11-.03-.24-.04-.37-.11-.11-.21-.21-.3-.3-.02-.12-.04-.22-.06-.32-.1-.07-.21-.15-.31-.22v-.56c.15-.14.29-.28.43-.41-.03-.05-.06-.09-.08-.13-.22-.09-.46-.07-.68-.07-.07.04-.13.08-.19.12-.09-.04-.16-.08-.23-.11-.18.12-.2.13-.3.11-.21-.03-.42-.07-.62-.1-.01,0-.02.02-.03.03-.22.25-.43.5-.6.7v.62c-.11.14-.21.26-.3.38-.11.03-.23.05-.33.08-.13-.05-.26-.09-.37-.13-.04.07-.07.13-.11.19-.3.07-.59.14-.91.21,0,0-.01.01-.02.02-.03.03-.06.06-.1.09t0,0s-.09.08-.14.12c-.14-.07-.26-.13-.38-.19h0c-.25-.13-.54-.24-.89-.25-.06.05-.11.13-.2.16-.37.12-.74.22-1.12.32-.09.02-.21.03-.29,0-.32-.1-.57.03-.81.17-.04,0-.08-.01-.12-.02-.02.02-.05.04-.07.06-.08-.04-.16-.08-.23-.11-.04,0-.08-.02-.13-.02-.01-.02-.02-.04-.03-.05-.1-.05-.2-.1-.28-.14-.23.02-.43.07-.62.04-.08-.01-.15-.02-.23-.04-.04.07-.07.13-.11.2-.09.04-.18.08-.24.11-.18-.02-.31-.1-.48-.06-.07.02-.15.02-.23,0-.22.33-.53.55-.9.69-.14.05-.24.13-.35.23-.07.07-.16.12-.22.17q-.45-.21-.68-.2c-.21-.15-.44-.28-.58-.52-.26-.04-.4-.27-.58-.43-.15.14-.15.32-.21.48-.11-.01-.21-.02-.33-.03-.01.02-.03.03-.04.04-.01,0-.02,0-.04,0-.15.13-.36.17-.57.19,0,.11.08.19-.07.27-.08-.02-.18-.05-.27-.08,0-.09-.01-.15-.02-.22h-.55s-.02,0-.03,0c-.16.13-.29.25-.43.36-.47.42-1.02.5-1.54.18-.21-.13-.42-.28-.62-.42-.1-.03-.19-.06-.29-.09-.1.06-.2.13-.28.18-.4.04-.78-.05-1.08.12-.23-.04-.42-.12-.58-.08-.46.13-.88.06-1.25-.22-.17.1-.33.19-.48.28-.02-.01-.03-.03-.05-.04-.07.04-.15.07-.24.09-.1-.02-.21-.06-.32-.07-.11-.02-.23-.02-.3-.02-.13-.06-.22-.14-.29-.22-.09.01-.19,0-.29-.03-.13-.14-.23-.31-.3-.49-.14.02-.24.03-.3.04-.23-.1-.31-.26-.42-.4-.02-.02-.03-.04-.06-.05-.03,0-.06.02-.09.04-.02-.01-.04-.02-.05-.03-.01.06-.02.11-.04.18-.14.06-.28.12-.42.18-.15.07-.26.19-.43.17-.05.09-.03.2-.17.2-.06-.04-.11-.08-.16-.12-.06.05-.12.09-.19.16-.14-.14-.26-.26-.38-.38-.1.05-.19.09-.28.14-.18-.2-.46-.17-.7-.22-.17.02-.29.18-.47.12-.07-.12.1-.22-.07-.31-.08,0-.17,0-.27.02-.01-.02-.03-.05-.04-.07-.07,0-.14-.01-.21-.02-.08.07-.15.14-.23.21-.07-.01-.13-.02-.2-.04-.08.04-.15.09-.22.13-.01,0-.03-.02-.04-.03-.03.01-.05.03-.08.04-.26-.1-.5-.2-.74-.3-.13.03-.24.06-.37.09-.13-.07-.26-.13-.39-.2-.04-.13-.07-.24-.1-.34.07-.07.13-.13.2-.2-.08-.11-.16-.2-.23-.3-.01,0-.02-.01-.04-.02-.12.03-.21.06-.29.08-.13-.11-.25-.21-.37-.3-.1-.02-.2-.03-.29-.05-.03,0-.05-.02-.08-.03-.05,0-.09.01-.14.02-.06-.06-.12-.11-.17-.17-.39-.24-.6-.59-.83-.91-.07.03-.15.05-.24.06-.25-.15-.51-.15-.77-.09-.02.02-.03.03-.05.05.04.12.08.22.11.32-.08.11-.16.22-.26.36-.14,0-.27-.01-.41-.03-.1-.01-.19-.05-.28-.06-.05,0-.11.02-.18.03-.05.09-.11.17-.16.26.04.06.07.1.11.16.09-.01.18-.02.28-.03.08.06.24.03.26.18-.09.06-.2.1-.27.18-.09.1-.2.16-.36.19-.14-.07-.29-.14-.44-.22-.11.03-.22.06-.34.09v.22c-.21.12-.39-.12-.58,0-.17-.05-.33-.1-.5-.15-.1.04-.19.11-.27.18-.08-.03-.16-.06-.24-.09-.17.02-.27-.04-.36-.2-.02-.04-.03-.1-.05-.14-.2-.02-.39-.03-.53-.14-.06-.14,0-.28-.02-.38-.05.01-.09.02-.13.03-.27-.04-.48-.19-.67-.35-.07.02-.14.03-.22.05-.02-.06-.04-.11-.05-.16h-.43c-.1.14-.19.28-.32.45-.54.18-1.06.57-1.66.57-.17.14-.31.25-.41.33-.33.09-.6-.03-.85-.1-.03.02-.07.03-.1.05,0,.03-.02.06-.03.09-.03,0-.06-.02-.09-.03-.26.14-.51.27-.78.4h-.8c-.14.09-.26.17-.38.25-.25,0-.51-.01-.77,0-.25.02-.51.06-.84.1-.22-.07-.46-.11-.71-.14-.07.01-.14,0-.21-.03-.1-.01-.2-.02-.3-.03-.11.02-.21.05-.31.01-.02.01-.05.02-.07.03-.07.07-.12.13-.16.17-.25.09-.45.16-.65.24h-.5c-.36-.16-.41-.57-.82-.68-.09.04-.18.09-.28.14-.1-.09-.19-.17-.28-.25.09-.09.15-.17.24-.26-.03-.04-.06-.09-.09-.13-.06,0-.13-.02-.19-.05-.11.12-.2.23-.29.34-.17-.09-.33-.17-.45-.24-.24.05-.27.21-.32.38-.03.09-.11.16-.16.24-.14-.04-.25-.07-.35-.1-.03,0-.05.02-.08.02,0,.03,0,.07.01.1-.11.08-.22.16-.3.22.02.08.04.12.05.19-.29.14-.22.48-.52.66-.12.02-.27.05-.43.08-.06-.13-.12-.23-.18-.35-.12.02-.23.03-.37.05-.26-.07-.46-.2-.45-.5,0-.08-.08-.16-.13-.23-.03,0-.05,0-.07,0-.04,0-.06,0-.08.01-.19.05-.27-.19-.46-.11-.01-.04-.02-.08-.03-.12-.15-.06-.29-.12-.43-.17-.2.1-.36.17-.53.25h-.58c-.11-.07-.22-.13-.3-.19-.11.03-.21.05-.22.05-.07-.03-.13-.06-.19-.09,0,.12.08.25.08.38-.26.12-.45,0-.64-.1-.03-.07-.06-.13-.09-.19-.09-.04-.18-.07-.28-.11-.02-.15-.08-.26-.18-.33-.09.03-.18.05-.27.07-.11-.03-.22-.06-.32-.09-.1.07-.19.12-.28.18-.32-.33-.69-.2-1.05-.1-.36-.24-.8-.26-1.13-.54-.31-.26-.69-.41-1.04-.51-.21-.21-.4-.4-.57-.57-.21-.01-.39-.02-.54-.03-.22-.13-.42-.28-.59-.44-.12-.08-.23-.16-.35-.23-.02-.02-.07,0-.11,0-.04.04-.09.08-.13.12,0,0-.01.02-.01.03,0,0,0,0-.01,0-.02.02-.04.04-.06.06-.17-.07-.31-.12-.45-.18,0,0-.01,0-.02,0-.03,0-.05.01-.08.02-.05-.04-.11-.08-.16-.11-.36-.13-.53-.08-.94.15-.07.06-.14.13-.2.2,0,0-.02,0-.03,0,0,0-.01.02-.02.03-.08.14-.22.19-.37.24-.11.04-.23.04-.32.05-.11.15-.23.28-.38.38-.08.13-.19.23-.32.31,0,.04.02.08.03.12-.07.11-.16.22-.25.35-.32.02-.63.02-.97,0-.23-.21-.55-.28-.9-.35.01-.15.02-.28.04-.43-.15-.06-.3-.13-.45-.19-.13.02-.24.11-.36.02,0-.06.01-.12.02-.21-.09-.04-.19-.09-.29-.15-.09-.05-.18-.12-.27-.18.02-.11.03-.21.05-.33-.2.08-.37.14-.54.21-.03.01-.06.04-.09.06-.04.03-.08.07-.11.1-.43.04-.51.05-.83.22-.02.04-.05.09-.08.12-.04.04-.09.08-.14.09,0,0-.02,0-.02,0,0,.19-.02.39-.03.58-.18.2-.47.31-.69.46h0c-.13.24-.29.45-.46.64-.14.05-.27.06-.39.03-.19.09-.39.16-.62.17-.13-.17-.24-.32-.33-.44-.04-.02-.08-.02-.12-.02-.02.01-.03.02-.05.04,0,0-.01-.02-.02-.02-.12.03-.23.1-.34,0,.05-.07.09-.13.12-.18-.19-.13-.41-.24-.56-.43-.14-.07-.28-.13-.4-.22-.17.09-.34.18-.52.27h-.38c-.19-.08-.31-.24-.53-.23-.06.1-.12.2-.18.31-.12.01-.24.02-.34.03-.02,0-.04.02-.06.02-.03,0-.05,0-.07-.01,0,0-.02,0-.03,0-.12.07-.22.13-.3.18-.02-.01-.04-.02-.06-.03-.02.01-.04.03-.06.04h-.55s-.01,0-.02,0c0,0,0,0-.01,0h-.26s-.05-.11-.06-.17c-.03-.01-.05-.03-.08-.04-.17.12-.35.21-.34.41-.08-.07-.16-.13-.22-.18-.19,0-.29.16-.47.1.03-.09.06-.17.08-.25,0-.01-.02-.02-.03-.03-.06-.02-.12-.05-.18-.08-.14,0-.27-.01-.4-.06-.07-.02-.15,0-.21,0-.11.11-.2.19-.27.27-.2.03-.38.05-.56.07-.04.08-.11.16-.11.23,0,.11-.22.11-.15.26.07.03.15.08.24.11.15.04.3.07.44.11.03.2.03.2,0,.24-.09.1-.19.21-.28.3-.12-.03-.21-.05-.29-.06-.24.1-.24.32-.41.47-.08.03-.18.07-.32.13-.14-.18-.35-.21-.57-.24-.03,0-.04-.05-.07-.08.05-.12.1-.24.15-.36.11,0,.2,0,.28-.01.08-.26-.07-.4-.33-.53h-.44c-.19-.06-.29-.2-.47-.15-.02,0-.07-.06-.12-.1.08-.04.14-.08.18-.1-.04-.16-.07-.27-.1-.4.09-.06.16-.11.25-.15.09-.03.2-.03.21-.16-.14-.14-.29-.3-.43-.44-.11,0-.21-.04-.3.03-.02.11.11.22-.04.33-.05,0-.1,0-.15-.02-.08-.02-.15-.04-.23.06.02.07.07.16.08.26.02.11,0,.22,0,.31.09.06.16.12.23.17-.07.07-.13.11-.17.16.05.27.36.17.55.28.04.09.1.19.13.31.03.11.03.23.07.34.03.1.08.2.13.31-.37.17-.71.33-1.08.51-.24-.11-.51,0-.75-.01-.2-.04-.27-.22-.46-.25-.05.19,0,.41-.31.45-.11.01-.22-.05-.3-.18.01-.11-.08-.26.08-.39.1-.02.2-.03.32-.05-.02-.25.17-.42.29-.63.18-.07.36-.13.57-.2-.06-.05-.11-.09-.15-.14-.13.03-.24.06-.36.09-.11.03-.22.05-.35.08.01.1.03.18.04.27-.09.14-.17.28-.26.42-.24-.07-.14-.29-.36-.43-.06-.02-.2-.08-.31-.12-.23.11-.41.2-.55.26-.23-.04-.4-.08-.6-.11-.15-.1-.31-.2-.48-.31-.06.07-.12.14-.17.2-.2-.07-.15-.3-.36-.34-.03,0-.05.01-.08.02,0,0-.02.02-.03.02-.01,0-.03,0-.04,0-.18.07-.35.18-.57.11-.19-.19-.43-.26-.73-.21-.07-.06-.13-.11-.22-.19-.12.1-.22.18-.31.26-.01,0-.02.02-.03.03v-.03c-.13-.02-.25-.08-.34-.16-.03-.07-.05-.13-.09-.21-.13-.04-.28-.09-.42-.14-.08.06-.14.1-.19.15-.06.06-.09.15-.26.16-.14-.05-.32-.11-.51-.18-.31.15-.66.05-.98.11-.2.11-.38.25-.62.28-.5-.11-.99-.21-1.51-.21-.06-.06-.11-.11-.15-.15-.24-.04-.47-.08-.7-.11-.08.05-.16.09-.24.14-.02,0-.04-.01-.06-.02-.35-.18-.51-.18-.8.02-.21.15-.41.3-.57.42-.36.04-.65.06-.97.09-.11-.04-.26-.1-.4-.16h-.57c-.2.14-.39.26-.55.37-.22.04-.41.07-.58.11-.21-.06-.4-.11-.58-.16-.12.06-.23.13-.36.2-.09-.03-.18-.07-.28-.08-.09-.01-.18,0-.27,0-.03-.07-.06-.13-.09-.2-.47.08-.92-.05-1.37-.03-.13-.07-.24-.13-.34-.19-.14,0-.26-.02-.38-.03-.07-.06-.15-.12-.24-.19-.26.07-.41-.14-.58-.19-.41-.03-.77.04-1.1-.1-.1.06-.2.12-.3.17-.11-.03-.23-.07-.34-.08-.13,0-.27.02-.4.04-.07-.07-.13-.13-.19-.2-.02.03-.04.06-.05.09-.02.04-.05.07-.07.12-.1-.05-.18-.1-.3-.16-.35.03-.7.11-.96.37-.09-.06-.17-.11-.23-.15h-.36c-.08.07-.15.12-.22.17-.13-.03-.24-.06-.34-.08-.13.06-.25.11-.37.17-.08-.11-.14-.19-.2-.27-.06-.09-.23-.13-.21-.27.09-.03.16-.05.24-.07-.18-.25-.34-.5-.52-.76-.02-.11-.04-.24-.06-.38-.09,0-.16,0-.25-.01,0,.09.01.15.02.2-.1.2-.37.08-.52.2-.03.11-.05.23-.08.36-.06-.04-.1-.06-.14-.08.04-.19.07-.37.1-.51.1-.1.28-.05.29-.22h-.78c-.07.04-.15.09-.23.14h-.4c-.1-.05-.18-.1-.26-.14-.06.04-.12.09-.2.15-.12-.09-.27-.07-.42-.06-.01,0-.02-.03-.04-.04,0-.15-.02-.3-.03-.44-.13-.15-.27-.24-.49-.29-.21-.05-.41-.12-.65-.02.09.19.18.37.26.56.03.07.03.15.04.22-.22.1-.41.18-.61.27-.14-.09-.29-.17-.45-.27.03-.13.06-.25.1-.38-.11-.09-.2-.18-.3-.26-.04-.03-.1-.05-.13-.07-.37.04-.71.08-1.06.13-.08.06-.15.11-.1.24.08.06.18.13.28.2-.05.19-.1.36-.17.61,0,.08-.28-.15-.24.06.1.04.2.09.3.13-.07.15-.06.31-.21.42-.19-.13-.38-.25-.55-.36-.3.02-.58.04-.86.05-.02.12-.03.23-.06.35,0,.02-.06.03-.1.06-.1-.09-.21-.18-.3-.26h-.35c-.32.25-.65.51-.99.78-.14.01-.29.03-.42.05-.08.13-.13.23-.17.3-.36-.01-.68-.02-.97-.03-.13.09-.29.14-.46.15,0,0,0,0,0,0-.11.04-.21.08-.32.13-.1-.09-.18-.18-.27-.27h-.83c-.1.07-.19.13-.27.19h-.92c-.12-.05-.25-.1-.37-.14-.13,0-.27-.01-.4,0-.17.01-.34.05-.51.08-.05-.05-.1-.09-.15-.13h-.02c-.19-.09-.39-.19-.62-.3-.13.01-.28.03-.34.04-.21-.06-.34-.13-.47-.13-.38.01-.74-.06-1.1-.14-.09-.09-.18-.17-.24-.23-.34-.09-.38.16-.58.28-.25-.01-.52-.03-.75-.04-.16.05-.29.1-.41.13-.13.04-.26.07-.4.09-.15.03-.28-.11-.46-.05-.11.04-.26-.02-.37-.03-.19.27-.47.38-.76.51-.2-.09-.39-.18-.54-.25-.18,0-.34.04-.49,0-.15-.04-.3-.09-.46-.06-.33.2-.69.29-1.09.22-.21.22-.41.45-.59.64-.6.12-1.14-.05-1.68-.1-.18-.02-.35-.13-.54-.2-.3.12-.61-.19-.95-.06-.11.06-.23.13-.35.2-.12-.02-.24-.06-.34-.04-.14.03-.26.04-.4-.01-.1-.04-.23-.05-.35-.04-.21,0-.39-.05-.56-.18-.06-.12-.13-.26-.2-.4-.14-.03-.27-.05-.4-.08-.17-.25-.33-.49-.47-.69-.21-.02-.38-.03-.59-.04-.08.06-.18.13-.28.21-.04.03-.1.05-.17.08-.13-.06-.26-.13-.27-.13-.23-.24.09-.24.04-.4-.4-.15-.83-.22-1.28-.15-.17.04-.14.26-.33.25-.14-.03-.2-.19-.37-.14-.05.08-.11.17-.18.28-.16-.11-.3-.2-.44-.29-.38-.06-.63-.16-1.27-.52-.05.06-.1.13-.17.19-.1.1-.23.12-.41.04-.09-.13-.21-.28-.31-.42q-.26-.03-.46-.14v-.17c-.17-.18-.37-.27-.59-.31-.33.07-.62.17-.83.39-.13-.03-.24-.05-.36-.07-.19.1-.37.19-.57.29-.09-.02-.19-.04-.29-.06-.08.04-.16.09-.26.15-.18-.03-.4-.2-.55.03-.04.08.11.16-.03.24-.17-.08-.33-.08-.48.1-.02.09-.04.2-.07.31-.16.16-.32.29-.6.29-.09,0-.18.1-.25.14-.04.15.16.29-.08.4-.13-.05-.27-.09-.42-.15-.16.11-.31.21-.47.32.05.08.11.17.18.27-.13.06-.24.12-.33.17-.13-.03-.22-.06-.33-.09-.16.05-.32.1-.46.14-.09.1-.16.17-.24.26h-1.02c-.16.08-.31.17-.46.24-.08.04-.18.05-.25.07-.3-.13-.44-.37-.61-.57-.34.23-.74.23-1.08.29-.11.1-.2.19-.29.26h-.3c-.13-.07-.25-.13-.34-.19-.34,0-.66-.04-.94.08-.23-.06-.43-.12-.55-.15-.24.03-.39.05-.53.08-.15-.11-.29-.2-.42-.3-.11.03-.2.05-.29.07-.37-.1-.61-.32-.81-.57-.08-.1-.15-.19-.27-.26-.02,0-.05-.01-.08-.02,0,0,0-.01,0-.02-.01,0-.03-.01-.04-.02-.1.01-.22.05-.33.04-.43-.05-.84-.15-1.28-.16-.23,0-.45-.1-.69-.15v-.32c-.27-.01-.52-.05-.77.03-.09.03-.2.06-.28.03-.19-.06-.34.03-.5.07-.04.08-.08.15-.13.24-.16.06-.32.12-.46.17-.15.15.02.3-.01.46-.07.06-.16.12-.23.17-.36.07-.69-.09-.99.03l-.41-.21c-.16.04-.29.07-.4.1-.12-.03-.22-.06-.22-.06-.26.03-.44.08-.61.06-.42-.07-.86-.08-1.25-.31h-.85c-.34-.2-.5-.51-.82-.65h-.33c-.14.11-.28.22-.41.32-.14.02-.26.04-.32.05-.41.35-.78.67-1.11.95-.23.05-.4.08-.6.12-.17-.09-.35-.18-.54-.27-.13,0-.27.02-.4.02-.16,0-.31-.02-.47-.03-.14,0-.28,0-.42,0-.16.06-.32.12-.5.19-.48-.21-.91-.02-1.38.12-.04-.02-.08-.04-.13-.05-.02,0-.04,0-.05.01.04.01.08.06.08.09.02.25-.04.5.36.46.38-.02.77-.04,1.15.02.12.02.12.15.13.21.08.15.31.35.4.21.12-.21-.04-.69.36-.52.06.04-.02.29.04.4.02.04.15.04.19,0,.23-.21.4-.06.6-.1v.12c.21-.08.25-.15.25-.23s.12-.17.21-.21c.13-.08.19.02.21.1.04.12,0,.23.04.35.04.12.13.15.21.12.29-.17.36-.75.54-.63.23.13.33.54.27.86.1-.12.23-.15.35-.23.02-.02-.02-.1,0-.12s.08,0,.12,0c-.02.13.04.19.12.23.04.02.08,0,.12,0-.04-.23.17-.27.27-.44.1-.21.35-.13.54-.13-.02.23.13.4.25.56.08.1.15-.06.21-.08.19-.06.42.04.56-.06.12-.1.15-.33.13-.54.04,0,.08-.02.12,0,.13.13.33.23.23.46.17.06.46.23.58,0,0,.04-.02.08,0,.12.15.21.5.36.69.12.02-.02.1-.02.12,0,.33.42.63.1.9.27.35.21.56.04.83.06.13,0,.27-.08.35-.21.02-.08-.02-.17.02-.21.04-.04.13,0,.21-.04.02,0,0-.06,0-.1.08.15.13.38.25.42.31.12.67-.02,1.02.06.02.02-.02.17.02.19.08.06.21.02.33.02-.08-.27.23-.33.46-.35,0,.08-.02.15.02.23,0,.02.08.02.1,0s-.02-.1,0-.1c.08-.04.17-.04.21,0,.1.06.12.21.15.31.1.17.17.31.21.48,0-.04-.02-.1,0-.12.36-.38.67-.73.86-1.25.1-.25.38-.15.52-.02.06.06.06.17.12.23.15.15.25.33.36.44.12.1.29.02.33-.1.23.27.48-.08.67.04.17.08.25.06.36.08-.02-.31.25-.21.35-.35.1.12.23.15.35.23.02.02,0,.1,0,.1.25.06.6.25.83.04.08-.06.27.04.33-.13.06-.25.23-.75.42-.54.1.12.19.23.29.27.31.13.29-.27.44-.42.15-.13.31-.12.46-.12-.02.21.12.27.23.33.06.04.15,0,.23.04.02,0,0,.08,0,.08.15.04.31.04.46,0v-.08c.38-.04.77.04,1.15-.04.02,0-.02-.15.02-.19.04-.04.13,0,.21-.04.02,0,0-.06,0-.1.12.08.15.15.12.23h.1c.08.19.13.58.36.58-.04-.36.12-.29.23-.35.02-.02-.02-.1,0-.12.02-.02.1-.02.12,0,.02.02-.02.08,0,.12.08.1.13.17.23.21.13.08.19-.02.23-.1.02-.04-.02-.1,0-.12.35-.23.56-.6.84-.75.4-.21.65.6,1,.84.23.17.46.17.69.12,0,0-.02-.08,0-.1s.1,0,.1,0c.23-.58.46-.6.56-.44.1.17-.02.48.27.54.04.02.1-.06.1-.1.02-.56.23-.27.36-.35v.1c.19.04.42-.04.56.06.12.1.21.54.33.38.31-.35.61-.84,1.06-.61.04.02.06.17.13.17.35.04.69-.02,1.04.04.12.02.12.15.13.19.08.17.31.38.38.23.13-.27-.04-.67.29-.9.04-.02.08,0,.12,0-.08.38.21.46.36.52.27.12.6.08.9.17-.02-.13.04-.25.12-.35.02-.02.08,0,.12,0-.02-.13.04-.19.12-.23.04-.02.1.02.12,0,.1-.1.17-.17.23-.12.23.29.58.35.92.36.08,0,.17.04.23.1.02.02-.02.08,0,.12.02.04.1.08.1.12,0,.19.04.35.13.46.02.02.1.02.1,0,.04-.08,0-.19.04-.21.15-.1.29-.02.33.1,0-.04-.02-.1,0-.12.31-.31.13-.73.27-1.02.04-.08.17.04.17.1-.04.35.17.6.48.69-.02-.21.12-.29.23-.33.21-.06.46-.04.69,0v.08c.23.04.46,0,.69.04v.1c.31-.02.61.02.92-.1.13-.06.31-.04.46,0,0,0-.02.08,0,.1.02.02.1-.02.12,0,.02.02,0,.08,0,.12.06-.46.48-.33.73-.54.13-.12.46-.12.63,0,.27.17.15.5.13.77.21-.15.29-.63.56-.42.04.04.06.15.13.17.31.08.35-.19.38-.44.02-.1.19-.15.31-.23,0,.23-.08.54.04.65.23.19.52-.23.79-.4.08-.06.21,0,.33-.02.04-.02.08-.1.12-.12.12-.02.23,0,.35,0,0,.35.29.46.46.69.08.12.13.21.12.35.04,0,.1-.02.12,0,.1.1.21.15.21.12,0-.63.27-.48.48-.58,0,.31-.06.61.02.92.02.02.15.02.21-.02.29-.21.36-.6.69-.79,0,.04-.02.1,0,.1.08.04.17.04.23,0,.15-.1.23-.25.25-.44,0-.04.06-.08.1-.12-.02.21.12.27.23.33.12.08.25-.02.35-.1.02-.02-.02-.1,0-.12.02-.02.08,0,.12,0-.04.19,0,.29.12.35.02.02,0,.1,0,.1.42.15.36-.42.46-.67,0,.19-.04.4.02.58.02.02.17.02.19-.02.1-.19-.1-.5.25-.58v-.1c.15.19.29.38.23.58h.1c.04.12.02.23.02.35.13-.02.17.06.23.12.12-.15.12-.31.13-.46.02-.12.15-.17.21-.12.02.02,0,.1,0,.1.12.04.23.04.35,0,0,0-.02-.08,0-.1.31-.23.29-.04.35-.02.38.13.83-.1,1.19.21.23.17.69-.1.88.27.5,0,1.06-.13,1.48.06.31.15.6.35.94.29-.02.31.21.25.36.33.08.06.29.08.29-.1,0-.44.17-.84.48-1.15-.02.13.04.19.12.23.33.1.56.27.81.46.04.02.08,0,.12,0-.02-.13.04-.19.12-.23.21-.08.33.1.46.23.02.02.08.02.12,0,.15-.13.25-.33.46-.33.04,0,.08.08.12.1.12.02.23-.02.35.02.13.04.15.25.25.29.19.1.5.12.63,0,.21-.15.29-.48.27-.77.15.21.31.15.46.1.12-.04.15-.13.12-.21.04,0,.1-.02.12,0,.1.1.17.12.21.13.25.17.27.4.6.44.17.02.31-.04.46-.1.31-.08.61-.06.92,0,.06.02.06.17.12.19.38.06.77,0,1.15.04.04,0,.08.06.12.1v-.12c.13.02.17-.08.23-.1.12-.04.25-.06.33,0,.23.17.46.21.71.23.04,0,.08.08.12.08.19.02.5.13.56-.1.04-.17.02-.33.13-.33.04,0,.08.08.12.08.17.04.38.06.44-.1.08-.21-.06-.52.06-.65.1-.12.36-.04.54.1.21.15.35.46.6.52.36.1.73.12,1.04.35.25.17.58.19.9.13.04,0,.08-.08.12-.08.15-.04.33.04.44-.04.13-.1.17-.29.25-.44.08.04.15.1.23.1.04,0,.08-.08.12-.1s.1-.02.1,0c.15.33.25.23.36.25s.15.13.12.21c.19.08.44.21.54.1.12-.13-.02-.46.17-.52.35-.1.31.42.56.52.06.02.19-.04.21-.1.04-.27.19-.23.23-.21.36.21.73.25,1.06.12.02-.02.08.06.12.1.12-.17.25-.17.33-.1.31.25.67.63,1.06.33.06.13.1.27.23.35.08.02.17.02.21-.02.15-.13.19-.36.25-.56,0,.04-.02.1,0,.12s.1-.02.12,0c.13.15.23.15.35.12.04-.02.1-.08.12-.12.02-.08,0-.15,0-.23.1.12.21.19.35.23.12.02.25.04.33-.02.04-.02.02-.13.02-.21.13.02.19-.04.23-.12,0-.04,0-.07,0-.11,0,0,0,0,0,0-.02-.02,0-.08,0-.12,0,.04,0,.08,0,.12.02.01.07.01.11,0,.12-.08.15-.15.12-.23.08,0,.17-.02.21.02.27.21.63.38.96.29.13-.06.36.04.56.04,0-.08-.02-.19.02-.21.19-.1.38,0,.56.08.13.06.33.08.44,0,.31-.21.5-.02.71,0,.54.06,1.08-.02,1.61.04.27.02.36.29.58.42.06.04.19.04.21,0,.12-.17.27-.29.35-.44.08-.17,0-.54.21-.4.17.08.1.44.19.61.13.21.46.44.77.35,0,0-.02-.08,0-.1.31-.23.29-.04.35-.02.15.04.35-.02.48-.04.4-.08.83.15,1.25.04.1-.04.15-.13.23-.1-.02-.13.04-.21.12-.21.15-.04.31.02.46-.04.19-.06.08-.21.13-.33,0-.02.08-.02.08,0,.04.08.02.15.02.23.19-.04.29,0,.35.12.02.02.1.02.12,0,.29-.27.36-.69.81-.79.09-.02.18-.04.27-.04.09,0,.18.02.27.04.44.1.52.52.81.79.02.02.1.02.12,0,.06-.12.15-.15.35-.12,0-.08-.02-.15.02-.23,0-.02.08-.02.08,0,.06.12-.06.27.13.33.15.06.31,0,.46.04.08,0,.13.08.12.21.08-.04.13.06.23.1.42.12.84-.12,1.25-.04.13.02.33.08.48.04.06-.02.04-.21.35.02.02.02,0,.1,0,.1.31.1.63-.13.77-.35.1-.17.02-.54.19-.61.21-.13.13.23.21.4.08.15.23.27.35.44.02.04.15.04.21,0,.21-.13.31-.4.58-.42.54-.06,1.08.02,1.61-.04.21-.02.4-.21.71,0,.12.08.31.06.44,0,.17-.08.36-.17.56-.08.04.02.02.13.02.21.19,0,.42-.1.56-.04.33.1.69-.08.96-.29.04-.04.13-.02.21-.02-.04.08,0,.15.12.23.03.02.08.02.11,0,0-.04,0-.08,0-.12,0,.04.02.1,0,.12,0,0,0,0,0,0,0,.04,0,.07,0,.11.04.08.1.13.23.12,0,.08-.02.19.02.21.08.06.21.04.33.02.13-.04.25-.12.35-.23,0,.08-.02.15,0,.23.02.04.08.1.12.12.12.04.21.04.35-.12.02-.02.1.02.12,0s0-.08,0-.12c.06.19.1.42.25.56.04.04.13.04.21.02.13-.08.17-.21.23-.35.38.31.75-.08,1.06-.33.08-.08.21-.08.33.1.04-.04.1-.12.12-.1.33.13.69.1,1.06-.12.04-.02.19-.06.23.21.02.06.15.12.21.1.25-.1.21-.61.56-.52.19.06.06.38.17.52.1.12.35-.02.54-.1-.04-.08,0-.19.12-.21.12-.02.21.08.36-.25,0-.02.06-.02.1,0s.08.1.12.1c.08,0,.15-.06.23-.1.08.15.12.35.25.44.12.08.29,0,.44.04.04,0,.08.08.12.08.33.06.65.04.9-.13.31-.23.67-.25,1.04-.35.25-.06.38-.36.6-.52.17-.13.44-.21.54-.1.12.13-.02.44.06.65.06.15.27.13.44.1.04,0,.08-.08.12-.08.12,0,.1.15.13.33.06.23.36.12.56.1.04,0,.08-.08.12-.08.25-.02.48-.06.71-.23.08-.06.21-.04.33,0,.06.02.1.12.23.1v.12s.08-.1.12-.1c.38-.04.77.02,1.15-.04.06-.02.06-.17.12-.19.31-.06.61-.08.92,0,.15.06.29.12.46.1.33-.04.35-.27.6-.44.04-.02.12-.04.21-.13.02-.02.08,0,.12,0-.04.08,0,.17.12.21.15.06.31.12.46-.1-.02.29.06.61.27.77.13.12.44.1.63,0,.1-.04.12-.25.25-.29.12-.04.23,0,.35-.02.04-.02.08-.1.12-.1.21,0,.31.19.46.33.04.02.1.02.12,0,.13-.13.25-.31.46-.23.08.04.13.1.12.23.04,0,.08.02.12,0,.25-.19.48-.36.81-.46.08-.04.13-.1.12-.23.31.31.48.71.48,1.15,0,.17.21.15.29.1.15-.08.38-.02.36-.33.35.06.63-.13.94-.29.42-.19.98-.06,1.48-.06.19-.36.65-.1.88-.27.36-.31.81-.08,1.19-.21.06-.02.04-.21.35.02.02.02,0,.1,0,.1.12.04.23.04.35,0,0,0-.02-.08,0-.1.06-.06.19,0,.21.12.02.15.02.31.13.46.06-.06.1-.13.23-.12,0-.12-.02-.23.02-.35h.1c-.06-.19.08-.38.23-.58v.1c.35.08.15.38.25.58.02.04.17.04.19.02.06-.17.02-.38.02-.58.1.25.04.83.46.67,0,0-.02-.08,0-.1.12-.06.15-.15.12-.35.04,0,.1-.02.12,0,.02.02-.02.1,0,.12.1.08.23.17.35.1.12-.06.25-.12.23-.33.04.04.1.08.1.12.02.19.1.35.25.44.06.04.15.04.23,0,.02,0,0-.06,0-.1.33.19.4.58.69.79.06.04.19.04.21.02.08-.31.02-.61.02-.92.21.1.48-.06.48.58,0,.04.12-.02.21-.12.02-.02.08,0,.12,0-.02-.13.04-.23.12-.35.17-.23.46-.35.46-.69.12,0,.23-.02.35,0,.04.02.08.1.12.12.12.02.25-.04.33.02.27.17.56.6.79.4.12-.12.04-.42.04-.65.12.08.29.13.31.23.04.25.08.52.38.44.08-.02.1-.13.13-.17.27-.21.35.27.56.42-.02-.27-.13-.6.13-.77.17-.12.5-.12.63,0,.25.21.67.08.73.54,0-.04-.02-.1,0-.12.02-.02.1.02.12,0,.02-.02,0-.1,0-.1.15-.04.33-.06.46,0,.31.12.61.08.92.1v-.1c.23-.04.46,0,.69-.04v-.08c.23-.04.48-.06.69,0,.12.04.25.12.23.33.31-.1.52-.35.48-.69,0-.06.13-.17.17-.1.13.29-.04.71.27,1.02.02.02,0,.08,0,.12.04-.12.17-.19.33-.1.04.02,0,.13.04.21,0,.02.08.02.1,0,.1-.12.13-.27.13-.46,0-.04.08-.08.1-.12.02-.04-.02-.1,0-.12.06-.06.15-.1.23-.1.35-.02.69-.08.92-.36.06-.06.13.02.23.12.02.02.08-.02.12,0,.08.04.13.1.12.23.04,0,.1-.02.12,0,.08.1.13.21.12.35.31-.1.63-.06.9-.17.15-.06.44-.13.36-.52.04,0,.08-.02.12,0,.33.23.15.63.29.9.08.15.31-.06.38-.23.02-.04.02-.17.13-.19.35-.06.69,0,1.04-.04.08,0,.1-.15.13-.17.44-.23.75.27,1.06.61.12.15.21-.29.33-.38.13-.1.36-.02.56-.06v-.1c.13.08.35-.21.36.35,0,.04.06.12.1.1.29-.06.17-.36.27-.54.1-.15.33-.13.56.44,0,0,.08-.02.1,0,.02.02,0,.1,0,.1.23.06.46.06.69-.12.35-.25.6-1.06,1-.84.29.15.5.52.84.75.02.02-.02.08,0,.12.04.08.1.17.23.1.1-.04.15-.12.23-.21.02-.04-.02-.1,0-.12.02-.02.1-.02.12,0,.02.02-.02.1,0,.12.12.06.27-.02.23.35.23,0,.29-.38.36-.58h.1c-.04-.08,0-.15.12-.23,0,.04-.02.1,0,.1.08.04.17,0,.21.04.04.04,0,.19.02.19.38.08.77,0,1.15.04v.08c.15.04.31.04.46,0,0,0-.02-.08,0-.08.08-.04.17,0,.23-.04.12-.06.25-.12.23-.33.15,0,.31-.02.46.12.15.15.13.56.44.42.1-.04.19-.15.29-.27.19-.21.36.29.42.54.06.17.25.08.33.13.23.21.58.02.83-.04,0,0-.02-.08,0-.1.12-.08.25-.12.35-.23.1.13.36.04.35.35.12-.02.19,0,.36-.08.19-.12.44.23.67-.04.04.12.21.19.33.1.12-.12.21-.29.36-.44.06-.06.06-.17.12-.23.13-.13.42-.23.52.02.19.52.5.86.86,1.25.02.02,0,.08,0,.12.04-.17.12-.31.21-.48.04-.1.06-.25.15-.31.04-.04.13-.04.21,0,.02,0-.02.08,0,.1s.1.02.1,0c.04-.08.02-.15.02-.23.23.02.54.08.46.35.12,0,.25.04.33-.02.04-.02,0-.17.02-.19.35-.08.71.06,1.02-.06.12-.04.17-.27.25-.42,0,.04-.02.1,0,.1.08.04.17,0,.21.04.04.04,0,.13.02.21.08.13.21.21.35.21.27-.02.48.15.83-.06.27-.17.58.15.9-.27.02-.02.1-.02.12,0,.19.25.54.1.69-.12.02-.04,0-.08,0-.12.12.23.4.06.58,0-.1-.23.1-.33.23-.46.04-.02.08,0,.12,0-.02.21.02.44.13.54.13.1.36,0,.56.06.06.02.13.17.21.08.12-.15.27-.33.25-.56.19,0,.44-.08.54.13.1.17.31.21.27.44.04,0,.08.02.12,0,.08-.04.13-.1.12-.23.04,0,.1-.02.12,0,.02.02-.02.1,0,.12.12.08.25.12.35.23-.06-.33.04-.73.27-.86.17-.12.25.46.54.63.08.04.17,0,.21-.12.04-.12,0-.23.04-.35.02-.08.08-.17.21-.1.1.04.21.13.21.21s.04.15.25.23v-.12c.19.04.36-.12.6.1.04.04.17.04.19,0,.06-.12-.02-.36.04-.4.4-.17.25.31.36.52.1.13.33-.06.4-.21.02-.06.02-.19.13-.21.38-.06.77-.04,1.15-.02.4.04.35-.21.36-.46,0-.04.06-.1.1-.1.19-.04.36-.06.58-.1.1,0,.21.25.35.27.31.08.33.52.46.73.02.02.1.02.1,0,.1-.15.06-.38.25-.44.23-.06.54.04.65-.27.1-.27.19-.54.5-.79.02-.02-.02-.1,0-.12.02-.02.08-.02.12,0,.17.15.29.38.46.42.27.04.4.21.58.38.02.02,0,.08,0,.12.08-.04.21.02.21.12-.03.47.18.85.5,1.17v-1.66c-.08-.06-.16-.13-.19-.15Z"/>
          <path class="cls-6" d="M.42,4.57c-.07.01-.14.05-.19.03-.05-.01-.15-.03-.24-.04v1.74c.31-.32.53-.7.5-1.17,0-.1.13-.15.21-.12,0-.04-.02-.1,0-.12.08-.08.15-.16.24-.23-.06.03-.11.05-.17.08-.13-.06-.25-.12-.35-.17Z"/>
        </g>
        <path class="cls-2" d="M0,0v4.55c.09.02.19.03.24.04.05.01.11-.02.19-.03.1.05.22.11.35.17.06-.03.11-.05.17-.08.06-.03.13-.06.19-.09.05.05.1.11.15.16.2-.04.36-.08.54-.11.1.09.19.18.29.27.07.01.15.02.22.03.09.01.19.03.28.06.18.05.35.05.53.03.12-.09.24-.17.35-.26.2,0,.4-.01.6-.03.02,0,.04,0,.06,0,.07.01.15.03.22.06.1.04.24.04.35.02.01,0,.02,0,.03,0,.02,0,.03,0,.05-.01.04.01.08.03.13.05.46-.13.9-.33,1.38-.12.17-.07.33-.13.5-.19.14,0,.28,0,.42,0,.16,0,.31.03.47.03.13,0,.27-.01.4-.02.18.09.37.19.54.27.2-.04.37-.07.6-.12.34-.29.71-.6,1.11-.95.07-.01.18-.03.32-.05.13-.1.27-.22.41-.32h.33c.32.13.48.45.82.65h.85c.39.23.83.24,1.25.31.16.03.35-.03.61-.06,0,0,.1.03.22.06.1-.03.23-.06.4-.1l.41.21c.3-.12.63.04.99-.03.07-.05.15-.12.23-.17.04-.16-.14-.31.01-.46.15-.06.31-.12.46-.17.04-.08.08-.16.13-.24.17-.04.31-.13.5-.07.08.02.19,0,.28-.03.25-.07.5-.04.77-.03v.32c.24.06.46.15.69.15.44.01.85.11,1.28.16.11.01.23-.03.33-.04.02,0,.03.01.04.02,0,0,0,.01,0,.02.03,0,.05.01.08.02.11.07.19.16.27.26.2.25.44.47.81.57.09-.02.18-.04.29-.07.13.09.27.19.42.3.15-.02.3-.04.53-.08.12.03.33.09.55.15.28-.13.6-.08.94-.08.1.05.21.12.34.19h.3c.08-.08.18-.16.29-.26.35-.06.74-.07,1.08-.29.17.2.31.43.61.57.07-.02.17-.03.25-.07.15-.07.3-.16.46-.24h1.02c.08-.08.15-.16.24-.26.14-.04.31-.09.46-.14.11.03.2.05.33.09.09-.05.21-.1.33-.17-.07-.11-.13-.19-.18-.27.16-.11.31-.21.47-.32.15.05.29.1.42.15.23-.11.03-.25.08-.4.06-.04.16-.14.25-.14.28,0,.43-.13.6-.29.02-.11.05-.22.07-.31.14-.18.31-.18.48-.1.14-.07-.01-.15.03-.24.16-.23.37-.07.55-.03.1-.06.18-.1.26-.15.1.02.19.04.29.06.19-.1.38-.19.57-.29.11.02.23.04.36.07.2-.22.49-.31.83-.39.22.04.42.13.59.31v.17q.2.11.46.14c.1.14.22.29.31.42.18.08.3.06.41-.04.06-.06.11-.13.17-.19.64.36.89.46,1.27.52.14.09.27.18.44.29.07-.11.12-.2.18-.28.17-.04.23.11.37.14.19,0,.17-.21.33-.25.46-.07.88,0,1.28.15.05.16-.27.16-.04.4.02,0,.15.07.27.13.07-.03.13-.05.17-.08.11-.07.21-.15.28-.21.21.02.38.03.59.04.14.21.3.45.47.69.13.02.26.05.4.08.07.14.14.28.2.4.17.13.35.18.56.18.12,0,.24,0,.35.04.14.05.26.04.4.01.1-.02.23.03.34.04.12-.07.23-.13.35-.2.34-.13.65.18.95.06.19.07.36.18.54.2.54.05,1.08.22,1.68.1.18-.2.39-.42.59-.64.4.08.76-.02,1.09-.22.16-.03.31.02.46.06.14.03.3,0,.49,0,.16.07.34.16.54.25.29-.13.57-.24.76-.51.12.01.26.06.37.03.18-.06.3.08.46.05.13-.02.27-.06.4-.09.13-.03.25-.08.41-.13.23.01.5.03.75.04.19-.11.24-.37.58-.28.06.06.15.15.24.23.36.08.72.16,1.1.14.12,0,.25.07.47.13.06,0,.21-.02.34-.04.23.11.43.21.62.3h.02s.1.09.15.13c.16-.03.33-.06.51-.08.13-.01.27,0,.4,0,.12.05.25.1.37.14h.92c.08-.06.17-.12.27-.19h.83c.09.09.18.17.27.27.11-.04.21-.08.32-.13,0,0,0,0,0,0,.17-.01.33-.07.46-.15.28,0,.61.02.97.03.04-.07.1-.17.17-.3.13-.01.28-.03.42-.05.34-.27.67-.52.99-.78h.35c.09.08.2.17.3.26.04-.02.09-.04.1-.06.03-.11.04-.23.06-.35.29-.02.57-.04.86-.05.17.11.36.23.55.36.15-.11.14-.27.21-.42-.1-.05-.2-.09-.3-.13-.04-.21.24.02.24-.06.07-.24.12-.42.17-.61-.1-.07-.2-.15-.28-.2-.05-.13.02-.18.1-.24.34-.04.69-.08,1.06-.13.03.02.09.04.13.07.1.08.19.17.3.26-.03.13-.06.26-.1.38.16.1.3.19.45.27.2-.09.39-.17.61-.27-.01-.07-.01-.15-.04-.22-.08-.19-.17-.37-.26-.56.24-.09.44-.02.65.02.21.04.35.14.49.29,0,.14.02.29.03.44.01.02.02.04.04.04.15,0,.31-.03.42.06.08-.06.14-.11.2-.15.08.05.16.09.26.14h.4c.08-.05.16-.1.23-.14h.78c0,.18-.19.12-.29.22-.03.15-.06.32-.1.51.04.02.08.05.14.08.03-.13.05-.24.08-.36.15-.12.42,0,.52-.2,0-.05,0-.11-.02-.2.08,0,.15,0,.25.01.02.14.04.27.06.38.18.26.35.5.52.76-.08.02-.15.05-.24.07-.02.14.15.18.21.27.06.08.12.17.2.27.13-.06.24-.11.37-.17.1.02.21.05.34.08.06-.05.13-.1.22-.17h.36c.06.04.13.09.23.15.26-.26.61-.34.96-.37.12.06.2.11.3.16.03-.04.05-.08.07-.12.02-.03.03-.06.05-.09.06.07.12.13.19.2.13-.01.27-.04.4-.04.11,0,.23.05.34.08.1-.06.2-.11.3-.17.34.14.7.07,1.1.1.17.05.32.26.58.19.09.07.16.13.24.19.12,0,.23.02.38.03.1.05.21.12.34.19.45-.02.9.12,1.37.03.03.07.06.13.09.2.09,0,.18-.01.27,0,.09.01.18.05.28.08.13-.07.24-.13.36-.2.19.05.38.1.58.16.17-.03.36-.06.58-.11.16-.11.35-.23.55-.37h.57c.15.06.29.11.4.16.32-.03.61-.06.97-.09.16-.12.36-.27.57-.42.28-.2.44-.2.8-.02.02,0,.04.01.06.02.08-.04.16-.09.24-.14.23.04.46.07.7.11.04.04.09.09.15.15.52,0,1.01.1,1.51.21.24-.03.42-.16.62-.28.33-.06.67.04.98-.11.19.07.37.13.51.18.17,0,.2-.1.26-.16.05-.05.11-.09.19-.15.15.05.29.09.42.14.03.08.06.14.09.21.1.08.21.14.34.16v.03s.02-.02.03-.03c.09-.08.19-.16.31-.26.09.07.15.13.22.19.29-.06.53.02.73.21.23.07.4-.04.57-.11.01,0,.03,0,.04,0,0,0,.02-.02.03-.02.03,0,.05-.02.08-.02.21.04.16.26.36.34.05-.06.11-.13.17-.2.16.11.33.21.48.31.19.04.36.07.6.11.14-.07.32-.16.55-.26.1.04.24.09.31.12.22.14.12.36.36.43.09-.14.18-.28.26-.42-.01-.09-.02-.17-.04-.27.13-.03.24-.05.35-.08.11-.03.23-.05.36-.09.05.04.09.09.15.14-.21.07-.38.14-.57.2-.12.21-.31.39-.29.63-.12.02-.22.03-.32.05-.15.13-.06.28-.08.39.08.14.19.19.3.18.3-.04.26-.26.31-.45.19.03.27.21.46.25.24.02.51-.09.75.01.37-.17.72-.33,1.08-.51-.04-.11-.1-.21-.13-.31-.03-.11-.03-.23-.07-.34-.03-.11-.09-.22-.13-.31-.19-.11-.49,0-.55-.28.05-.04.1-.09.17-.16-.07-.05-.14-.1-.23-.17,0-.09.01-.2,0-.31-.01-.09-.06-.19-.08-.26.08-.1.15-.08.23-.06.05.02.11.02.15.02.16-.11.02-.22.04-.33.09-.07.19-.03.3-.03.14.15.29.3.43.44,0,.13-.12.13-.21.16-.09.03-.16.09-.25.15.03.13.06.24.1.4-.03.02-.1.05-.18.1.04.04.09.11.12.1.19-.05.28.09.47.15h.44c.26.13.41.27.33.53-.08,0-.17,0-.28.01-.05.12-.1.24-.15.36.03.03.05.08.07.08.22.03.43.06.57.24.14-.06.24-.1.32-.13.18-.15.17-.37.41-.47.08.02.17.04.29.06.09-.09.18-.2.28-.3.04-.04.03-.04,0-.24-.14-.03-.3-.07-.44-.11-.09-.03-.17-.08-.24-.11-.08-.15.14-.15.15-.26,0-.08.07-.15.11-.23.19-.02.36-.04.56-.07.07-.07.16-.16.27-.27.06,0,.15-.02.21,0,.13.04.26.06.4.06.06.03.12.06.18.08,0,.01.02.02.03.03-.03.08-.05.16-.08.25.18.06.29-.09.47-.1.06.05.14.11.22.18,0-.2.16-.29.34-.41.03.01.05.03.08.04.01.06.02.12.06.17h.26s0,0,.01,0c0,0,.01,0,.02,0h.55s.04-.03.06-.04c.02,0,.04.02.06.03.09-.05.18-.11.3-.18,0,0,.02,0,.03,0,.02,0,.05,0,.07.01.02,0,.04-.01.06-.02.11-.01.22-.02.34-.03.06-.11.12-.21.18-.31.22,0,.34.15.53.23h.38c.18-.09.35-.18.52-.27.12.09.26.15.4.22.16.19.37.3.56.43-.03.05-.07.11-.12.18.11.11.21.04.34,0,0,0,.01.02.02.02.02-.01.03-.03.05-.04.04,0,.08,0,.12.02.09.12.2.27.33.44.23,0,.43-.08.62-.17.12.03.25.03.39-.03.17-.2.33-.41.46-.64h0c.22-.15.52-.25.69-.46.01-.19.02-.39.03-.58,0,0,.02,0,.02,0,.05-.02.1-.05.14-.09.03-.04.06-.08.08-.12.32-.17.4-.18.83-.22.03-.03.07-.07.11-.1.03-.02.06-.05.09-.06.17-.07.34-.13.54-.21-.02.12-.03.22-.05.33.09.06.18.12.27.18.1.06.2.1.29.15,0,.08-.01.15-.02.21.13.08.23,0,.36-.02.14.06.3.13.45.19-.01.15-.02.28-.04.43.34.06.67.13.9.35.34.01.65.02.97,0,.09-.13.17-.24.25-.35,0-.04-.02-.09-.03-.12.13-.08.24-.19.32-.31.15-.1.27-.23.38-.38.1-.01.22-.02.32-.05.14-.05.29-.1.37-.24,0,0,.01-.02.02-.03,0,0,.02,0,.03,0,.07-.07.13-.14.2-.2.41-.24.58-.28.94-.15.05.03.1.07.16.11.03,0,.05-.01.08-.02,0,0,.01,0,.02,0,.14.06.29.12.45.18.02-.02.04-.04.06-.06,0,0,0,0,.01,0,0-.01.01-.02.01-.03.04-.04.09-.08.13-.12.04,0,.09,0,.11,0,.11.08.23.16.35.23.18.17.37.31.59.44.15,0,.33.02.54.03.17.17.36.36.57.57.35.1.73.24,1.04.51.34.28.77.3,1.13.54.36-.1.73-.23,1.05.1.09-.06.18-.11.28-.18.1.03.21.06.32.09.09-.02.18-.05.27-.07.09.07.16.17.18.33.1.04.19.08.28.11.03.06.05.12.09.19.19.11.38.23.64.1,0-.12-.08-.25-.08-.38.06.03.13.06.19.09,0,0,.1-.02.22-.05.09.05.19.12.3.19h.58c.17-.08.33-.16.53-.25.14.05.28.11.43.17,0,.04.02.08.03.12.19-.08.27.16.46.11.02,0,.05,0,.08-.01.02,0,.05,0,.07,0,.05.07.13.15.13.23-.01.29.18.42.45.5.13-.02.24-.03.37-.05.06.12.12.23.18.35.16-.03.31-.06.43-.08.3-.18.23-.52.52-.66-.02-.07-.03-.11-.05-.19.09-.06.19-.14.3-.22,0-.03,0-.06-.01-.1.03,0,.05-.02.08-.02.1.03.21.06.35.1.05-.07.14-.15.16-.24.05-.17.09-.33.32-.38.12.06.28.14.45.24.09-.11.18-.22.29-.34.06.03.13.04.19.05.03.04.06.08.09.13-.08.09-.15.17-.24.26.09.08.18.16.28.25.1-.05.2-.09.28-.14.41.11.46.51.82.68h.5c.2-.07.4-.15.65-.24.03-.03.09-.09.16-.17.02-.01.05-.02.07-.03.1.04.21.01.31-.01.1,0,.2.02.3.03.07.03.14.04.21.03.25.03.49.08.71.14.34-.04.59-.09.84-.1.26-.02.51,0,.77,0,.13-.08.24-.16.38-.25h.8c.26-.14.52-.27.78-.4.03,0,.06.02.09.03.01-.03.02-.06.03-.09.03-.02.07-.03.1-.05.26.07.52.18.85.1.1-.08.24-.2.41-.33.61,0,1.13-.38,1.66-.57.12-.18.22-.31.32-.45h.43c.02.05.03.1.05.16.08-.02.15-.04.22-.05.19.15.4.31.67.35.04,0,.08-.02.13-.03.02.1-.04.25.02.38.14.11.33.12.53.14.01.04.02.1.05.14.09.16.19.21.36.2.08.03.16.06.24.09.08-.08.17-.14.27-.18.17.05.33.1.5.15.19-.12.37.12.58,0v-.22c.12-.03.23-.06.34-.09.15.08.3.15.44.22.16-.03.27-.08.36-.19.07-.08.18-.12.27-.18-.01-.15-.17-.12-.26-.18-.09.01-.18.02-.28.03-.04-.06-.07-.1-.11-.16.05-.08.11-.17.16-.26.07-.01.13-.04.18-.03.1,0,.19.04.28.06.13.02.27.02.41.03.1-.13.18-.25.26-.36-.04-.11-.07-.2-.11-.32.01-.02.03-.03.05-.05.26-.06.52-.06.77.09.09-.01.17-.03.24-.06.23.32.44.67.83.91.06.06.11.11.17.17.04,0,.09,0,.14-.02.03.01.05.02.08.03.09.02.19.03.29.05.12.1.24.19.37.3.08-.02.17-.05.29-.08.01,0,.02.01.04.02.07.09.15.19.23.3-.07.07-.13.13-.2.2.03.1.06.22.1.34.13.07.26.13.39.2.13-.03.24-.06.37-.09.24.1.49.2.74.3.03-.01.06-.03.08-.04.01,0,.03.02.04.03.07-.04.14-.08.22-.13.07.01.13.02.2.04.08-.07.15-.14.23-.21.07,0,.14.01.21.02.01.03.03.05.04.07.1,0,.19-.01.27-.02.16.09,0,.19.07.31.17.06.3-.1.47-.12.24.06.52.03.7.22.1-.05.18-.09.28-.14.12.12.24.24.38.38.08-.06.13-.11.19-.16.05.04.11.08.16.12.14,0,.12-.11.17-.2.17.02.28-.1.43-.17.14-.06.28-.12.42-.18.01-.07.02-.12.04-.18.02.01.04.02.05.03.03-.02.06-.03.09-.04.02.01.04.03.06.05.11.14.19.3.42.4.07,0,.17-.02.3-.04.07.18.17.35.3.49.1.02.2.04.29.03.07.09.15.17.29.22.06,0,.18,0,.3.02.12.02.23.05.32.07.1-.01.17-.04.24-.09.02.01.03.03.05.04.15-.09.3-.18.48-.28.37.28.79.35,1.25.22.16-.04.34.04.58.08.29-.17.68-.07,1.08-.12.09-.06.18-.12.28-.18.1.03.2.06.29.09.21.14.41.29.62.42.52.31,1.06.24,1.54-.18.13-.12.27-.23.43-.36,0,0,.02,0,.03,0h.55c0,.07.01.13.02.22.09.03.19.06.27.08.15-.08.08-.16.07-.27.21-.02.42-.06.57-.19.01,0,.02,0,.04,0,.01-.01.03-.03.04-.04.11.01.22.02.33.03.05-.16.05-.35.21-.48.17.16.32.39.58.43.14.24.37.37.58.52q.22,0,.68.2c.07-.05.15-.1.22-.17.1-.1.21-.18.35-.23.37-.14.68-.35.9-.69.08,0,.16,0,.23,0,.18-.04.3.04.48.06.07-.03.15-.07.24-.11.04-.07.07-.13.11-.2.07.01.15.03.23.04.19.03.39-.03.62-.04.09.04.18.09.28.14.01.02.02.04.03.05.04,0,.09.02.13.02.07.04.15.07.23.11.02-.02.05-.04.07-.06.04,0,.08.01.12.02.24-.13.49-.26.81-.17.09.03.2.02.29,0,.38-.1.75-.2,1.12-.32.08-.03.14-.11.2-.16.35.01.64.12.89.24h0c.12.07.24.13.38.2.05-.04.09-.08.14-.12t0,0s.07-.06.1-.09c0,0,.01-.01.02-.02.31-.07.6-.14.91-.21.04-.06.07-.13.11-.19.11.04.24.08.37.13.1-.02.21-.05.33-.08.09-.12.19-.24.3-.38v-.62c.17-.2.38-.45.6-.7.01,0,.02-.02.03-.03.19.03.4.08.62.1.11.01.13,0,.3-.11.07.03.14.07.23.11.06-.04.12-.08.19-.12.22,0,.46-.02.68.07.03.04.05.08.08.13-.14.14-.28.27-.43.41v.56c.1.07.21.15.31.22.02.11.04.21.06.32.09.09.19.19.3.3.02.13.03.26.04.37.03.02.11.09.19.15V0H0Z"/>
      </g>
    </g>
  </g>
</svg>