<?xml version="1.0" encoding="UTF-8"?>
<svg xmlns="http://www.w3.org/2000/svg" version="1.1" viewBox="0 0 192 10">
  <defs>
    <style>
      .cls-1 {
        fill: #231f20;
      }
    </style>
  </defs>
  <!-- Generator: Adobe Illustrator 28.6.0, SVG Export Plug-In . SVG Version: 1.2.0 Build 709)  -->
  <g>
    <g id="Top_Divider">
      <path class="cls-1" d="M192,10v-4.55c-.09-.02-.19-.03-.24-.04-.05-.01-.11.02-.19.03-.1-.05-.22-.11-.35-.17-.06.03-.11.05-.17.08-.06.03-.13.06-.19.09-.05-.05-.1-.11-.15-.16-.2.04-.36.08-.54.11-.1-.09-.19-.18-.29-.27-.07-.01-.15-.02-.22-.03-.09-.01-.19-.03-.28-.06-.18-.05-.35-.05-.53-.03-.12.09-.24.17-.35.26-.2,0-.4.01-.6.03-.02,0-.04,0-.06,0-.07-.01-.15-.03-.22-.06-.1-.04-.24-.04-.35-.02-.01,0-.02,0-.03,0-.02,0-.03,0-.05.01-.04-.01-.08-.03-.13-.05-.46.13-.9.33-1.38.12-.17.07-.33.13-.5.19-.14,0-.28,0-.42,0-.16,0-.31-.03-.47-.03-.13,0-.27.01-.4.02-.18-.09-.37-.19-.54-.27-.2.04-.37.07-.6.12-.34.29-.71.6-1.11.95-.07.01-.18.03-.32.05-.13.1-.27.22-.41.32h-.33c-.32-.13-.48-.45-.82-.65h-.85c-.39-.23-.83-.24-1.25-.31-.16-.03-.35.03-.61.06,0,0-.1-.03-.22-.06-.1.03-.23.06-.4.1l-.41-.21c-.3.12-.63-.04-.99.03-.07.05-.15.12-.23.17-.04.16.14.31-.01.46-.15.06-.31.12-.46.17-.04.08-.08.16-.13.24-.17.04-.31.13-.5.07-.08-.02-.19,0-.28.03-.25.07-.5.04-.77.03v-.32c-.24-.06-.46-.15-.69-.15-.44-.01-.85-.11-1.28-.16-.11-.01-.23.03-.33.04-.02,0-.03-.01-.04-.02,0,0,0-.01,0-.02-.03,0-.05-.01-.08-.02-.11-.07-.19-.16-.27-.26-.2-.25-.44-.47-.81-.57-.09.02-.18.04-.29.07-.13-.09-.27-.19-.42-.3-.15.02-.3.04-.53.08-.12-.03-.33-.09-.55-.15-.28.13-.6.08-.94.08-.1-.05-.21-.12-.34-.19h-.3c-.08.08-.18.16-.29.26-.35.06-.74.07-1.08.29-.17-.2-.31-.43-.61-.57-.07.02-.17.03-.25.07-.15.07-.3.16-.46.24h-1.02c-.08.08-.15.16-.24.26-.14.04-.31.09-.46.14-.11-.03-.2-.05-.33-.09-.09.05-.21.1-.33.17.07.11.13.19.18.27-.16.11-.31.21-.47.32-.15-.05-.29-.1-.42-.15-.23.11-.03.25-.08.4-.06.04-.16.14-.25.14-.28,0-.43.13-.6.29-.02.11-.05.22-.07.31-.14.18-.31.18-.48.1-.14.07.01.15-.03.24-.16.23-.37.07-.55.03-.1.06-.18.1-.26.15-.1-.02-.19-.04-.29-.06-.19.1-.38.19-.57.29-.11-.02-.23-.04-.36-.07-.2.22-.49.31-.83.39-.22-.04-.42-.13-.59-.31v-.17q-.2-.11-.46-.14c-.1-.14-.22-.29-.31-.42-.18-.08-.3-.06-.41.04-.06.06-.11.13-.17.19-.64-.36-.89-.46-1.27-.52-.14-.09-.27-.18-.44-.29-.07.11-.12.2-.18.28-.17.04-.23-.11-.37-.14-.19,0-.17.21-.33.25-.46.07-.88,0-1.28-.15-.05-.16.27-.16.04-.4-.02,0-.15-.07-.27-.13-.07.03-.13.05-.17.08-.11.07-.21.15-.28.21-.21-.02-.38-.03-.59-.04-.14-.21-.3-.45-.47-.69-.13-.02-.26-.05-.4-.08-.07-.14-.14-.28-.2-.4-.17-.13-.35-.18-.56-.18-.12,0-.24,0-.35-.04-.14-.05-.26-.04-.4-.01-.1.02-.23-.03-.34-.04-.12.07-.23.13-.35.2-.34.13-.65-.18-.95-.06-.19-.07-.36-.18-.54-.2-.54-.05-1.08-.22-1.68-.1-.18.2-.39.42-.59.64-.4-.08-.76.02-1.09.22-.16.03-.31-.02-.46-.06-.14-.03-.3,0-.49,0-.16-.07-.34-.16-.54-.25-.29.13-.57.24-.76.51-.12-.01-.26-.06-.37-.03-.18.06-.3-.08-.46-.05-.13.02-.27.06-.4.09-.13.03-.25.08-.41.13-.23-.01-.5-.03-.75-.04-.19.11-.24.37-.58.28-.06-.06-.15-.15-.24-.23-.36-.08-.72-.16-1.1-.14-.12,0-.25-.07-.47-.13-.06,0-.21.02-.34.04-.23-.11-.43-.21-.62-.3h-.02s-.1-.09-.15-.13c-.16.03-.33.06-.51.08-.13.01-.27,0-.4,0-.12-.05-.25-.1-.37-.14h-.92c-.08.06-.17.12-.27.19h-.83c-.09-.09-.18-.17-.27-.27-.11.04-.21.08-.32.13,0,0,0,0,0,0-.17.01-.33.07-.46.15-.28,0-.61-.02-.97-.03-.04.07-.1.17-.17.3-.13.01-.28.03-.42.05-.34.27-.67.52-.99.78h-.35c-.09-.08-.2-.17-.3-.26-.04.02-.09.04-.1.06-.03.11-.04.23-.06.35-.29.02-.57.04-.86.05-.17-.11-.36-.23-.55-.36-.15.11-.14.27-.21.42.1.05.2.09.3.13.04.21-.24-.02-.24.06-.07.24-.12.42-.17.61.1.07.2.15.28.2.05.13-.02.18-.1.24-.34.04-.69.08-1.06.13-.03-.02-.09-.04-.13-.07-.1-.08-.19-.17-.3-.26.03-.13.06-.26.1-.38-.16-.1-.3-.19-.45-.27-.2.09-.39.17-.61.27.01.07.01.15.04.22.08.19.17.37.26.56-.24.09-.44.02-.65-.02-.21-.04-.35-.14-.49-.29,0-.14-.02-.29-.03-.44-.01-.02-.02-.04-.04-.04-.15,0-.31.03-.42-.06-.08.06-.14.11-.2.15-.08-.05-.16-.09-.26-.14h-.4c-.08.05-.16.1-.23.14h-.78c0-.18.19-.12.29-.22.03-.15.06-.32.1-.51-.04-.02-.08-.05-.14-.08-.03.13-.05.24-.08.36-.15.12-.42,0-.52.2,0,.05,0,.11.02.2-.08,0-.15,0-.25-.01-.02-.14-.04-.27-.06-.38-.18-.26-.35-.5-.52-.76.08-.02.15-.05.24-.07.02-.14-.15-.18-.21-.27-.06-.08-.12-.17-.2-.27-.13.06-.24.11-.37.17-.1-.02-.21-.05-.34-.08-.06.05-.13.1-.22.17h-.36c-.06-.04-.13-.09-.23-.15-.26.26-.61.34-.96.37-.12-.06-.2-.11-.3-.16-.03.04-.05.08-.07.12-.02.03-.03.06-.05.09-.06-.07-.12-.13-.19-.2-.13.01-.27.04-.4.04-.11,0-.23-.05-.34-.08-.1.06-.2.11-.3.17-.34-.14-.7-.07-1.1-.1-.17-.05-.32-.26-.58-.19-.09-.07-.16-.13-.24-.19-.12,0-.23-.02-.38-.03-.1-.05-.21-.12-.34-.19-.45.02-.9-.12-1.37-.03-.03-.07-.06-.13-.09-.2-.09,0-.18.01-.27,0-.09-.01-.18-.05-.28-.08-.13.07-.24.13-.36.2-.19-.05-.38-.1-.58-.16-.17.03-.36.06-.58.11-.16.11-.35.23-.55.37h-.57c-.15-.06-.29-.11-.4-.16-.32.03-.61.06-.97.09-.16.12-.36.27-.57.42-.28.2-.44.2-.8.02-.02,0-.04-.01-.06-.02-.08.04-.16.09-.24.14-.23-.04-.46-.07-.7-.11-.04-.04-.09-.09-.15-.15-.52,0-1.01-.1-1.51-.21-.24.03-.42.16-.62.28-.33.06-.67-.04-.98.11-.19-.07-.37-.13-.51-.18-.17,0-.2.1-.26.16-.05.05-.11.09-.19.15-.15-.05-.29-.09-.42-.14-.03-.08-.06-.14-.09-.21-.1-.08-.21-.14-.34-.16v-.03s-.02.02-.03.03c-.09.08-.19.16-.31.26-.09-.07-.15-.13-.22-.19-.29.06-.53-.02-.73-.21-.23-.07-.4.04-.57.11-.01,0-.03,0-.04,0,0,0-.02.02-.03.02-.03,0-.05.02-.08.02-.21-.04-.16-.26-.36-.34-.05.06-.11.13-.17.2-.16-.11-.33-.21-.48-.31-.19-.04-.36-.07-.6-.11-.14.07-.32.16-.55.26-.1-.04-.24-.09-.31-.12-.22-.14-.12-.36-.36-.43-.09.14-.18.28-.26.42.01.09.02.17.04.27-.13.03-.24.05-.35.08-.11.03-.23.05-.36.09-.05-.04-.09-.09-.15-.14.21-.07.38-.14.57-.2.12-.21.31-.39.29-.63.12-.02.22-.03.32-.05.15-.13.06-.28.08-.39-.08-.14-.19-.19-.3-.18-.3.04-.26.26-.31.45-.19-.03-.27-.21-.46-.25-.24-.02-.51.09-.75-.01-.37.17-.72.33-1.08.51.04.11.1.21.13.31.03.11.03.23.07.34.03.11.09.22.13.31.19.11.49,0,.55.28-.05.04-.1.09-.17.16.07.05.14.1.23.17,0,.09-.01.2,0,.31.01.09.06.19.08.26-.08.1-.15.08-.23.06-.05-.02-.11-.02-.15-.02-.16.11-.02.22-.04.33-.09.07-.19.03-.3.03-.14-.15-.29-.3-.43-.44,0-.13.12-.13.21-.16.09-.03.16-.09.25-.15-.03-.13-.06-.24-.1-.4.03-.02.1-.05.18-.1-.04-.04-.09-.11-.12-.1-.19.05-.28-.09-.47-.15h-.44c-.26-.13-.41-.27-.33-.53.08,0,.17,0,.28-.01.05-.12.1-.24.15-.36-.03-.03-.05-.08-.07-.08-.22-.03-.43-.06-.57-.24-.14.06-.24.1-.32.13-.18.15-.17.37-.41.47-.08-.02-.17-.04-.29-.06-.09.09-.18.2-.28.3-.04.04-.03.04,0,.24.14.03.3.07.44.11.09.03.17.08.24.11.08.15-.14.15-.15.26,0,.08-.07.15-.11.23-.19.02-.36.04-.56.07-.07.07-.16.16-.27.27-.06,0-.15.02-.21,0-.13-.04-.26-.06-.4-.06-.06-.03-.12-.06-.18-.08,0-.01-.02-.02-.03-.03.03-.08.05-.16.08-.25-.18-.06-.29.09-.47.1-.06-.05-.14-.11-.22-.18,0,.2-.16.29-.34.41-.03-.01-.05-.03-.08-.04-.01-.06-.02-.12-.06-.17h-.26s0,0-.01,0c0,0-.01,0-.02,0h-.55s-.04.03-.06.04c-.02,0-.04-.02-.06-.03-.09.05-.18.11-.3.18,0,0-.02,0-.03,0-.02,0-.05,0-.07-.01-.02,0-.04.01-.06.02-.11.01-.22.02-.34.03-.06.11-.12.21-.18.31-.22,0-.34-.15-.53-.23h-.38c-.18.09-.35.18-.52.27-.12-.09-.26-.15-.4-.22-.16-.19-.37-.3-.56-.43.03-.05.07-.11.12-.18-.11-.11-.21-.04-.34,0,0,0-.01-.02-.02-.02-.02.01-.03.03-.05.04-.04,0-.08,0-.12-.02-.09-.12-.2-.27-.33-.44-.23,0-.43.08-.62.17-.12-.03-.25-.03-.39.03-.17.2-.33.41-.46.64h0c-.22.15-.52.25-.69.46-.01.19-.02.39-.03.58,0,0-.02,0-.02,0-.05.02-.1.05-.14.09-.03.04-.06.08-.08.12-.32.17-.4.18-.83.22-.03.03-.07.07-.11.1-.03.02-.06.05-.09.06-.17.07-.34.13-.54.21.02-.12.03-.22.05-.33-.09-.06-.18-.12-.27-.18-.1-.06-.2-.1-.29-.15,0-.08.01-.15.02-.21-.13-.08-.23,0-.36.02-.14-.06-.3-.13-.45-.19.01-.15.02-.28.04-.43-.34-.06-.67-.13-.9-.35-.34-.01-.65-.02-.97,0-.09.13-.17.24-.25.35,0,.04.02.09.03.12-.13.08-.24.19-.32.31-.15.1-.27.23-.38.38-.1.01-.22.02-.32.05-.14.05-.29.1-.37.24,0,0-.01.02-.02.03,0,0-.02,0-.03,0-.07.07-.13.14-.2.2-.41.24-.58.28-.94.15-.05-.03-.1-.07-.16-.11-.03,0-.05.01-.08.02,0,0-.01,0-.02,0-.14-.06-.29-.12-.45-.18-.02.02-.04.04-.06.06,0,0,0,0-.01,0,0,.01-.01.02-.01.03-.04.04-.09.08-.13.12-.04,0-.09,0-.11,0-.11-.08-.23-.16-.35-.23-.18-.17-.37-.31-.59-.44-.15,0-.33-.02-.54-.03-.17-.17-.36-.36-.57-.57-.35-.1-.73-.24-1.04-.51-.34-.28-.77-.3-1.13-.54-.36.1-.73.23-1.05-.1-.09.06-.18.11-.28.18-.1-.03-.21-.06-.32-.09-.09.02-.18.05-.27.07-.09-.07-.16-.17-.18-.33-.1-.04-.19-.08-.28-.11-.03-.06-.05-.12-.09-.19-.19-.11-.38-.23-.64-.1,0,.12.08.25.08.38-.06-.03-.13-.06-.19-.09,0,0-.1.02-.22.05-.09-.05-.19-.12-.3-.19h-.58c-.17.08-.33.16-.53.25-.14-.05-.28-.11-.43-.17,0-.04-.02-.08-.03-.12-.19.08-.27-.16-.46-.11-.02,0-.05,0-.08.01-.02,0-.05,0-.07,0-.05-.07-.13-.15-.13-.23.01-.29-.18-.42-.45-.5-.13.02-.24.03-.37.05-.06-.12-.12-.23-.18-.35-.16.03-.31.06-.43.08-.3.18-.23.52-.52.66.02.07.03.11.05.19-.09.06-.19.14-.3.22,0,.03,0,.06.01.1-.03,0-.05.02-.08.02-.1-.03-.21-.06-.35-.1-.05.07-.14.15-.16.24-.05.17-.09.33-.32.38-.12-.06-.28-.14-.45-.24-.09.11-.18.22-.29.34-.06-.03-.13-.04-.19-.05-.03-.04-.06-.08-.09-.13.08-.09.15-.17.24-.26-.09-.08-.18-.16-.28-.25-.1.05-.2.09-.28.14-.41-.11-.46-.51-.82-.68h-.5c-.2.07-.4.15-.65.24-.03.03-.09.09-.16.17-.02.01-.05.02-.07.03-.1-.04-.21-.01-.31.01-.1,0-.2-.02-.3-.03-.07-.03-.14-.04-.21-.03-.25-.03-.49-.08-.71-.14-.34.04-.59.09-.84.1-.26.02-.51,0-.77,0-.13.08-.24.16-.38.25h-.8c-.26.14-.52.27-.78.4-.03,0-.06-.02-.09-.03-.01.03-.02.06-.03.09-.03.02-.07.03-.1.05-.26-.07-.52-.18-.85-.1-.1.08-.24.2-.41.33-.61,0-1.13.38-1.66.57-.12.18-.22.31-.32.45h-.43c-.02-.05-.03-.1-.05-.16-.08.02-.15.04-.22.05-.19-.15-.4-.31-.67-.35-.04,0-.08.02-.13.03-.02-.1.04-.25-.02-.38-.14-.11-.33-.12-.53-.14-.01-.04-.02-.1-.05-.14-.09-.16-.19-.21-.36-.2-.08-.03-.16-.06-.24-.09-.08.08-.17.14-.27.18-.17-.05-.33-.1-.5-.15-.19.12-.37-.12-.58,0v.22c-.12.03-.23.06-.34.09-.15-.08-.3-.15-.44-.22-.16.03-.27.08-.36.19-.07.08-.18.12-.27.18.01.15.17.12.26.18.09-.01.18-.02.28-.03.04.06.07.1.11.16-.05.08-.11.17-.16.26-.07.01-.13.04-.18.03-.1,0-.19-.04-.28-.06-.13-.02-.27-.02-.41-.03-.1.13-.18.25-.26.36.04.11.07.2.11.32-.01.02-.03.03-.05.05-.26.06-.52.06-.77-.09-.09.01-.17.03-.24.06-.23-.32-.44-.67-.83-.91-.06-.06-.11-.11-.17-.17-.04,0-.09,0-.14.02-.03-.01-.05-.02-.08-.03-.09-.02-.19-.03-.29-.05-.12-.1-.24-.19-.37-.3-.08.02-.17.05-.29.08-.01,0-.02-.01-.04-.02-.07-.09-.15-.19-.23-.3.07-.07.13-.13.2-.2-.03-.1-.06-.22-.1-.34-.13-.07-.26-.13-.39-.2-.13.03-.24.06-.37.09-.24-.1-.49-.2-.74-.3-.03.01-.06.03-.08.04-.01,0-.03-.02-.04-.03-.07.04-.14.08-.22.13-.07-.01-.13-.02-.2-.04-.08.07-.15.14-.23.21-.07,0-.14-.01-.21-.02-.01-.03-.03-.05-.04-.07-.1,0-.19.01-.27.02-.16-.09,0-.19-.07-.31-.17-.06-.3.1-.47.12-.24-.06-.52-.03-.7-.22-.1.05-.18.09-.28.14-.12-.12-.24-.24-.38-.38-.08.06-.13.11-.19.16-.05-.04-.11-.08-.16-.12-.14,0-.12.11-.17.2-.17-.02-.28.1-.43.17-.14.06-.28.12-.42.18-.01.07-.02.12-.04.18-.02-.01-.04-.02-.05-.03-.03.02-.06.03-.09.04-.02-.01-.04-.03-.06-.05-.11-.14-.19-.3-.42-.4-.07,0-.17.02-.3.04-.07-.18-.17-.35-.3-.49-.1-.02-.2-.04-.29-.03-.07-.09-.15-.17-.29-.22-.06,0-.18,0-.3-.02-.12-.02-.23-.05-.32-.07-.1.01-.17.04-.24.09-.02-.01-.03-.03-.05-.04-.15.09-.3.18-.48.28-.37-.28-.79-.35-1.25-.22-.16.04-.34-.04-.58-.08-.29.17-.68.07-1.08.12-.09.06-.18.12-.28.18-.1-.03-.2-.06-.29-.09-.21-.14-.41-.29-.62-.42-.52-.31-1.06-.24-1.54.18-.13.12-.27.23-.43.36,0,0-.02,0-.03,0h-.55c0-.07-.01-.13-.02-.22-.09-.03-.19-.06-.27-.08-.15.08-.08.16-.07.27-.21.02-.42.06-.57.19-.01,0-.02,0-.04,0-.01.01-.03.03-.04.04-.11-.01-.22-.02-.33-.03-.05.16-.05.35-.21.48-.17-.16-.32-.39-.58-.43-.14-.24-.37-.37-.58-.52q-.22,0-.68-.2c-.07.05-.15.1-.22.17-.1.1-.21.18-.35.23-.37.14-.68.35-.9.69-.08,0-.16,0-.23,0-.18.04-.3-.04-.48-.06-.07.03-.15.07-.24.11-.04.07-.07.13-.11.2-.07-.01-.15-.03-.23-.04-.19-.03-.39.03-.62.04-.09-.04-.18-.09-.28-.14-.01-.02-.02-.04-.03-.05-.04,0-.09-.02-.13-.02-.07-.04-.15-.07-.23-.11-.02.02-.05.04-.07.06-.04,0-.08-.01-.12-.02-.24.13-.49.26-.81.17-.09-.03-.2-.02-.29,0-.38.1-.75.2-1.12.32-.08.03-.14.11-.2.16-.35-.01-.64-.12-.89-.24h0c-.12-.07-.24-.13-.38-.2-.05.04-.09.08-.14.12t0,0s-.07.06-.1.09c0,0-.01.01-.02.02-.31.07-.6.14-.91.21-.04.06-.07.13-.11.19-.11-.04-.24-.08-.37-.13-.1.02-.21.05-.33.08-.09.12-.19.24-.3.38v.62c-.17.2-.38.45-.6.7-.01,0-.02.02-.03.03-.19-.03-.4-.08-.62-.1-.11-.01-.13,0-.3.11-.07-.03-.14-.07-.23-.11-.06.04-.12.08-.19.12-.22,0-.46.02-.68-.07-.03-.04-.05-.08-.08-.13.14-.14.28-.27.43-.41v-.56c-.1-.07-.21-.15-.31-.22-.02-.11-.04-.21-.06-.32-.09-.09-.19-.19-.3-.3-.02-.13-.03-.26-.04-.37-.03-.02-.11-.09-.19-.15v4.63h192Z"/>
    </g>
  </g>
</svg>